<svg width="132" height="52" viewBox="0 0 132 52" fill="none" xmlns="http://www.w3.org/2000/svg">
<rect width="132" height="52" rx="4" fill="white"/>
<path d="M107.785 33.261C106.645 33.261 105.706 33.015 104.968 32.523C104.236 32.031 103.786 31.347 103.618 30.471L104.968 30.246C105.112 30.798 105.439 31.239 105.949 31.569C106.465 31.893 107.101 32.055 107.857 32.055C108.595 32.055 109.177 31.902 109.603 31.596C110.029 31.284 110.242 30.861 110.242 30.327C110.242 30.027 110.173 29.784 110.035 29.598C109.903 29.406 109.63 29.229 109.216 29.067C108.802 28.905 108.184 28.713 107.362 28.491C106.48 28.251 105.79 28.011 105.292 27.771C104.794 27.531 104.44 27.255 104.23 26.943C104.02 26.625 103.915 26.238 103.915 25.782C103.915 25.23 104.071 24.747 104.383 24.333C104.695 23.913 105.127 23.589 105.679 23.361C106.231 23.127 106.873 23.01 107.605 23.01C108.337 23.01 108.991 23.13 109.567 23.37C110.149 23.604 110.617 23.934 110.971 24.36C111.325 24.786 111.535 25.281 111.601 25.845L110.251 26.088C110.161 25.518 109.876 25.068 109.396 24.738C108.922 24.402 108.319 24.228 107.587 24.216C106.897 24.198 106.336 24.33 105.904 24.612C105.472 24.888 105.256 25.257 105.256 25.719C105.256 25.977 105.334 26.199 105.49 26.385C105.646 26.565 105.928 26.736 106.336 26.898C106.75 27.06 107.338 27.237 108.1 27.429C108.994 27.657 109.696 27.897 110.206 28.149C110.716 28.401 111.079 28.698 111.295 29.04C111.511 29.382 111.619 29.805 111.619 30.309C111.619 31.227 111.277 31.95 110.593 32.478C109.915 33 108.979 33.261 107.785 33.261Z" fill="#171A1F"/>
<path d="M97.188 33.243C96.606 33.243 96.096 33.153 95.658 32.973C95.226 32.793 94.857 32.55 94.551 32.244C94.251 31.938 94.008 31.59 93.822 31.2C93.636 30.804 93.501 30.387 93.417 29.949C93.333 29.505 93.291 29.064 93.291 28.626V23.28H94.623V28.239C94.623 28.773 94.674 29.268 94.776 29.724C94.878 30.18 95.04 30.579 95.262 30.921C95.49 31.257 95.781 31.518 96.135 31.704C96.495 31.89 96.93 31.983 97.44 31.983C97.908 31.983 98.319 31.902 98.673 31.74C99.033 31.578 99.333 31.347 99.573 31.047C99.819 30.741 100.005 30.372 100.131 29.94C100.257 29.502 100.32 29.01 100.32 28.464L101.256 28.671C101.256 29.667 101.082 30.504 100.734 31.182C100.386 31.86 99.906 32.373 99.294 32.721C98.682 33.069 97.98 33.243 97.188 33.243ZM100.455 33V30.606H100.32V23.28L101.643 23.28V33H100.455Z" fill="#171A1F"/>
<path d="M87.9524 33C87.4064 33.114 86.8664 33.159 86.3324 33.135C85.8044 33.111 85.3304 32.997 84.9104 32.793C84.4964 32.589 84.1814 32.271 83.9654 31.839C83.7914 31.479 83.6954 31.116 83.6774 30.75C83.6654 30.378 83.6594 29.955 83.6594 29.481V20.58H84.9734V29.427C84.9734 29.835 84.9764 30.177 84.9824 30.453C84.9944 30.723 85.0574 30.963 85.1714 31.173C85.3874 31.575 85.7294 31.815 86.1974 31.893C86.6714 31.971 87.2564 31.953 87.9524 31.839V33ZM81.5804 24.414V23.28H87.9524V24.414H81.5804Z" fill="#171A1F"/>
<path d="M76.7257 33.27C75.7477 33.27 74.9197 33.051 74.2417 32.613C73.5637 32.175 73.0477 31.572 72.6937 30.804C72.3457 30.03 72.1657 29.142 72.1537 28.14C72.1657 27.12 72.3517 26.226 72.7117 25.458C73.0717 24.684 73.5907 24.084 74.2687 23.658C74.9467 23.226 75.7687 23.01 76.7347 23.01C77.7187 23.01 78.5737 23.25 79.2997 23.73C80.0317 24.21 80.5327 24.867 80.8027 25.701L79.5067 26.115C79.2787 25.533 78.9157 25.083 78.4177 24.765C77.9257 24.441 77.3617 24.279 76.7257 24.279C76.0117 24.279 75.4207 24.444 74.9527 24.774C74.4847 25.098 74.1367 25.551 73.9087 26.133C73.6807 26.715 73.5637 27.384 73.5577 28.14C73.5697 29.304 73.8397 30.24 74.3677 30.948C74.8957 31.65 75.6817 32.001 76.7257 32.001C77.3857 32.001 77.9467 31.851 78.4087 31.551C78.8767 31.245 79.2307 30.801 79.4707 30.219L80.8027 30.615C80.4427 31.479 79.9147 32.139 79.2187 32.595C78.5227 33.045 77.6917 33.27 76.7257 33.27Z" fill="#171A1F"/>
<path d="M65.4727 33.27C64.7407 33.27 64.1257 33.138 63.6277 32.874C63.1357 32.61 62.7667 32.259 62.5207 31.821C62.2747 31.383 62.1517 30.906 62.1517 30.39C62.1517 29.862 62.2567 29.412 62.4667 29.04C62.6827 28.662 62.9737 28.353 63.3397 28.113C63.7117 27.873 64.1407 27.69 64.6267 27.564C65.1187 27.444 65.6617 27.339 66.2557 27.249C66.8557 27.153 67.4407 27.072 68.0107 27.006C68.5867 26.934 69.0907 26.865 69.5227 26.799L69.0547 27.087C69.0727 26.127 68.8867 25.416 68.4967 24.954C68.1067 24.492 67.4287 24.261 66.4627 24.261C65.7967 24.261 65.2327 24.411 64.7707 24.711C64.3147 25.011 63.9937 25.485 63.8077 26.133L62.5207 25.755C62.7427 24.885 63.1897 24.21 63.8617 23.73C64.5337 23.25 65.4067 23.01 66.4807 23.01C67.3687 23.01 68.1217 23.178 68.7397 23.514C69.3637 23.844 69.8047 24.324 70.0627 24.954C70.1827 25.236 70.2607 25.551 70.2967 25.899C70.3327 26.247 70.3507 26.601 70.3507 26.961V33H69.1717V30.561L69.5137 30.705C69.1837 31.539 68.6707 32.175 67.9747 32.613C67.2787 33.051 66.4447 33.27 65.4727 33.27ZM65.6257 32.127C66.2437 32.127 66.7837 32.016 67.2457 31.794C67.7077 31.572 68.0797 31.269 68.3617 30.885C68.6437 30.495 68.8267 30.057 68.9107 29.571C68.9827 29.259 69.0217 28.917 69.0277 28.545C69.0337 28.167 69.0367 27.885 69.0367 27.699L69.5407 27.96C69.0907 28.02 68.6017 28.08 68.0737 28.14C67.5517 28.2 67.0357 28.269 66.5257 28.347C66.0217 28.425 65.5657 28.518 65.1577 28.626C64.8817 28.704 64.6147 28.815 64.3567 28.959C64.0987 29.097 63.8857 29.283 63.7177 29.517C63.5557 29.751 63.4747 30.042 63.4747 30.39C63.4747 30.672 63.5437 30.945 63.6817 31.209C63.8257 31.473 64.0537 31.692 64.3657 31.866C64.6837 32.04 65.1037 32.127 65.6257 32.127Z" fill="#171A1F"/>
<path d="M60.7767 33C60.2307 33.114 59.6907 33.159 59.1567 33.135C58.6287 33.111 58.1547 32.997 57.7347 32.793C57.3207 32.589 57.0057 32.271 56.7897 31.839C56.6157 31.479 56.5197 31.116 56.5017 30.75C56.4897 30.378 56.4837 29.955 56.4837 29.481V20.58H57.7977V29.427C57.7977 29.835 57.8007 30.177 57.8067 30.453C57.8187 30.723 57.8817 30.963 57.9957 31.173C58.2117 31.575 58.5537 31.815 59.0217 31.893C59.4957 31.971 60.0807 31.953 60.7767 31.839V33ZM54.4047 24.414V23.28H60.7767V24.414H54.4047Z" fill="#171A1F"/>
<path d="M51.8171 33V28.041C51.8171 27.501 51.7661 27.006 51.6641 26.556C51.5621 26.1 51.3971 25.704 51.1691 25.368C50.9471 25.026 50.6561 24.762 50.2961 24.576C49.9421 24.39 49.5101 24.297 49.0001 24.297C48.5321 24.297 48.1181 24.378 47.7581 24.54C47.4041 24.702 47.1041 24.936 46.8581 25.242C46.6181 25.542 46.4351 25.908 46.3091 26.34C46.1831 26.772 46.1201 27.264 46.1201 27.816L45.1841 27.609C45.1841 26.613 45.3581 25.776 45.7061 25.098C46.0541 24.42 46.5341 23.907 47.1461 23.559C47.7581 23.211 48.4601 23.037 49.2521 23.037C49.8341 23.037 50.3411 23.127 50.7731 23.307C51.2111 23.487 51.5801 23.73 51.8801 24.036C52.1861 24.342 52.4321 24.693 52.6181 25.089C52.8041 25.479 52.9391 25.896 53.0231 26.34C53.1071 26.778 53.1491 27.216 53.1491 27.654V33H51.8171ZM44.7881 33V23.28H45.9851V25.674H46.1201V33H44.7881Z" fill="#171A1F"/>
<path d="M38.2039 33.27C37.2379 33.27 36.4129 33.051 35.7289 32.613C35.0449 32.175 34.5199 31.569 34.1539 30.795C33.7879 30.021 33.6049 29.133 33.6049 28.131C33.6049 27.111 33.7909 26.217 34.1629 25.449C34.5349 24.681 35.0629 24.084 35.7469 23.658C36.4369 23.226 37.2559 23.01 38.2039 23.01C39.1759 23.01 40.0039 23.229 40.6879 23.667C41.3779 24.099 41.9029 24.702 42.2629 25.476C42.6289 26.244 42.8119 27.129 42.8119 28.131C42.8119 29.151 42.6289 30.048 42.2629 30.822C41.8969 31.59 41.3689 32.19 40.6789 32.622C39.9889 33.054 39.1639 33.27 38.2039 33.27ZM38.2039 32.001C39.2839 32.001 40.0879 31.644 40.6159 30.93C41.1439 30.21 41.4079 29.277 41.4079 28.131C41.4079 26.955 41.1409 26.019 40.6069 25.323C40.0789 24.627 39.2779 24.279 38.2039 24.279C37.4779 24.279 36.8779 24.444 36.4039 24.774C35.9359 25.098 35.5849 25.551 35.3509 26.133C35.1229 26.709 35.0089 27.375 35.0089 28.131C35.0089 29.301 35.2789 30.24 35.8189 30.948C36.3589 31.65 37.1539 32.001 38.2039 32.001Z" fill="#171A1F"/>
<path d="M26.507 33.27C25.217 33.27 24.128 32.985 23.24 32.415C22.352 31.839 21.68 31.044 21.224 30.03C20.768 29.016 20.54 27.846 20.54 26.52C20.54 25.194 20.768 24.024 21.224 23.01C21.68 21.996 22.352 21.204 23.24 20.634C24.128 20.058 25.217 19.77 26.507 19.77C28.013 19.77 29.243 20.157 30.197 20.931C31.151 21.699 31.805 22.731 32.159 24.027L30.809 24.378C30.533 23.352 30.038 22.539 29.324 21.939C28.61 21.339 27.671 21.039 26.507 21.039C25.493 21.039 24.65 21.27 23.978 21.732C23.306 22.194 22.799 22.839 22.457 23.667C22.121 24.489 21.947 25.44 21.935 26.52C21.929 27.6 22.094 28.551 22.43 29.373C22.772 30.195 23.282 30.84 23.96 31.308C24.644 31.77 25.493 32.001 26.507 32.001C27.671 32.001 28.61 31.701 29.324 31.101C30.038 30.495 30.533 29.682 30.809 28.662L32.159 29.013C31.805 30.309 31.151 31.344 30.197 32.118C29.243 32.886 28.013 33.27 26.507 33.27Z" fill="#171A1F"/>
</svg>
