<svg width="24" height="24" viewBox="0 0 24 24" fill="none" xmlns="http://www.w3.org/2000/svg">
<path d="M21.5999 12C21.5996 10.1654 21.0737 8.36939 20.0844 6.82446C19.095 5.27954 17.6838 4.05043 16.0176 3.28266C14.3514 2.51488 12.5002 2.24059 10.683 2.49225C8.86578 2.74391 7.15874 3.51099 5.76395 4.70267C4.36915 5.89435 3.34502 7.46073 2.81279 9.21638C2.28055 10.972 2.26251 12.8434 2.7608 14.609C3.25909 16.3746 4.25283 17.9604 5.62439 19.1787C6.99595 20.3971 8.68789 21.1969 10.4999 21.4836L10.4999 14.775H8.0627V12H10.4999V9.88498C10.4999 7.47898 11.9333 6.14998 14.1257 6.14998C14.8457 6.15997 15.564 6.22254 16.2749 6.33718V8.69998H15.0641C14.8578 8.67258 14.6479 8.69196 14.4501 8.75668C14.2523 8.82141 14.0716 8.92982 13.9213 9.07388C13.7711 9.21794 13.6552 9.39396 13.5823 9.5889C13.5093 9.78383 13.4812 9.99269 13.4999 10.2V12H16.1627L15.7367 14.775H13.4999L13.4999 21.4836C15.7582 21.1263 17.8148 19.9748 19.2997 18.2363C20.7846 16.4978 21.6003 14.2863 21.5999 12Z" fill="#2E6FE8"/>
</svg>
