<svg width="286" height="37" viewBox="0 0 286 37" fill="none" xmlns="http://www.w3.org/2000/svg">
<path d="M279.422 23.76C279.166 21.808 278.91 19.792 278.654 17.712C278.398 15.632 278.19 13.568 278.03 11.52C277.87 9.47201 277.789 7.50401 277.789 5.61601V1.87201L285.902 1.87201V5.61601C285.902 7.53601 285.821 9.53601 285.661 11.616C285.501 13.696 285.294 15.776 285.038 17.856C284.782 19.904 284.509 21.872 284.221 23.76H279.422ZM281.822 36.528C280.51 36.528 279.486 36.16 278.75 35.424C278.014 34.688 277.646 33.632 277.646 32.256C277.646 30.976 278.03 29.936 278.798 29.136C279.566 28.336 280.574 27.936 281.822 27.936C283.134 27.936 284.142 28.32 284.846 29.088C285.582 29.824 285.949 30.88 285.949 32.256C285.949 33.504 285.566 34.528 284.798 35.328C284.03 36.128 283.038 36.528 281.822 36.528Z" fill="white"/>
<path d="M256.079 36.528C253.871 36.528 251.903 35.968 250.175 34.848C248.479 33.696 247.135 32.128 246.143 30.144C245.151 28.128 244.655 25.84 244.655 23.28C244.655 20.72 245.151 18.448 246.143 16.464C247.135 14.448 248.495 12.864 250.223 11.712C251.951 10.56 253.935 9.98401 256.175 9.98401C257.327 9.98401 258.431 10.16 259.487 10.512C260.543 10.864 261.503 11.344 262.367 11.952C263.231 12.56 263.935 13.264 264.479 14.064C265.023 14.832 265.343 15.632 265.439 16.464L263.615 16.896V0.480011L271.343 0.480011V36H264.191L263.759 30.192L265.295 30.432C265.199 31.232 264.879 32 264.335 32.736C263.823 33.472 263.151 34.128 262.319 34.704C261.487 35.248 260.527 35.68 259.439 36C258.383 36.352 257.263 36.528 256.079 36.528ZM258.047 30.144C259.231 30.144 260.255 29.856 261.119 29.28C261.983 28.704 262.639 27.904 263.087 26.88C263.567 25.856 263.807 24.656 263.807 23.28C263.807 21.872 263.567 20.656 263.087 19.632C262.639 18.608 261.983 17.808 261.119 17.232C260.255 16.656 259.231 16.368 258.047 16.368C256.863 16.368 255.839 16.656 254.975 17.232C254.143 17.808 253.487 18.608 253.007 19.632C252.527 20.656 252.287 21.872 252.287 23.28C252.287 24.656 252.527 25.856 253.007 26.88C253.487 27.904 254.143 28.704 254.975 29.28C255.839 29.856 256.863 30.144 258.047 30.144Z" fill="white"/>
<path d="M230.45 36.48C227.634 36.48 225.186 35.92 223.106 34.8C221.026 33.648 219.41 32.096 218.258 30.144C217.106 28.16 216.53 25.904 216.53 23.376C216.53 21.424 216.85 19.632 217.49 18C218.13 16.368 219.026 14.96 220.178 13.776C221.33 12.56 222.69 11.632 224.258 10.992C225.858 10.32 227.602 9.98401 229.49 9.98401C231.282 9.98401 232.914 10.304 234.386 10.944C235.89 11.584 237.186 12.48 238.274 13.632C239.362 14.784 240.194 16.144 240.77 17.712C241.346 19.28 241.602 20.992 241.538 22.848L241.49 24.912L221.186 24.912L220.082 20.592L235.25 20.592L234.434 21.504V20.544C234.37 19.744 234.114 19.04 233.666 18.432C233.25 17.792 232.69 17.296 231.986 16.944C231.282 16.592 230.482 16.416 229.586 16.416C228.338 16.416 227.266 16.672 226.37 17.184C225.506 17.664 224.85 18.384 224.402 19.344C223.954 20.272 223.73 21.424 223.73 22.8C223.73 24.208 224.018 25.44 224.594 26.496C225.202 27.52 226.066 28.32 227.186 28.896C228.338 29.472 229.698 29.76 231.266 29.76C232.354 29.76 233.314 29.6 234.146 29.28C235.01 28.96 235.938 28.416 236.93 27.648L240.53 32.736C239.538 33.6 238.482 34.304 237.362 34.848C236.242 35.392 235.09 35.792 233.906 36.048C232.754 36.336 231.602 36.48 230.45 36.48Z" fill="white"/>
<path d="M201.528 36V4.08002L209.208 4.08002V36H201.528ZM197.016 17.232V10.512L214.152 10.512V17.232L197.016 17.232Z" fill="white"/>
<path d="M176.635 36V10.512L183.931 10.512L184.267 18.816L182.827 17.232C183.211 15.856 183.835 14.624 184.699 13.536C185.595 12.448 186.635 11.584 187.819 10.944C189.003 10.304 190.267 9.98401 191.611 9.98401C192.187 9.98401 192.715 10.032 193.195 10.128C193.707 10.224 194.171 10.336 194.587 10.464L192.475 18.96C192.123 18.736 191.643 18.56 191.035 18.432C190.459 18.272 189.851 18.192 189.211 18.192C188.507 18.192 187.851 18.32 187.243 18.576C186.635 18.8 186.123 19.136 185.707 19.584C185.291 20.032 184.955 20.56 184.699 21.168C184.475 21.776 184.363 22.464 184.363 23.232V36H176.635Z" fill="white"/>
<path d="M154.402 36.432C152.258 36.432 150.338 35.872 148.642 34.752C146.978 33.6 145.65 32.032 144.658 30.048C143.666 28.032 143.17 25.76 143.17 23.232C143.17 20.64 143.666 18.352 144.658 16.368C145.65 14.384 147.01 12.832 148.738 11.712C150.466 10.56 152.434 9.98401 154.642 9.98401C155.858 9.98401 156.962 10.16 157.954 10.512C158.978 10.864 159.874 11.36 160.642 12C161.41 12.608 162.066 13.328 162.61 14.16C163.154 14.96 163.554 15.824 163.81 16.752L162.226 16.56V10.512L169.858 10.512V36L162.082 36V29.856L163.81 29.808C163.554 30.704 163.138 31.552 162.562 32.352C161.986 33.152 161.282 33.856 160.45 34.464C159.618 35.072 158.69 35.552 157.666 35.904C156.642 36.256 155.554 36.432 154.402 36.432ZM156.514 29.952C157.698 29.952 158.722 29.68 159.586 29.136C160.45 28.592 161.122 27.824 161.602 26.832C162.082 25.808 162.322 24.608 162.322 23.232C162.322 21.856 162.082 20.672 161.602 19.68C161.122 18.656 160.45 17.872 159.586 17.328C158.722 16.752 157.698 16.464 156.514 16.464C155.362 16.464 154.354 16.752 153.49 17.328C152.658 17.872 152.002 18.656 151.522 19.68C151.042 20.672 150.802 21.856 150.802 23.232C150.802 24.608 151.042 25.808 151.522 26.832C152.002 27.824 152.658 28.592 153.49 29.136C154.354 29.68 155.362 29.952 156.514 29.952Z" fill="white"/>
<path d="M128.215 36V4.08002L135.895 4.08002V36H128.215ZM123.703 17.232V10.512L140.839 10.512V17.232L123.703 17.232Z" fill="white"/>
<path d="M110.93 36.48C108.434 36.48 106.226 36.08 104.306 35.28C102.418 34.48 100.914 33.408 99.7937 32.064L104.45 28.032C105.442 29.024 106.562 29.76 107.81 30.24C109.058 30.688 110.242 30.912 111.362 30.912C111.81 30.912 112.21 30.864 112.562 30.768C112.914 30.672 113.202 30.544 113.426 30.384C113.682 30.192 113.874 29.984 114.002 29.76C114.13 29.504 114.194 29.216 114.194 28.896C114.194 28.256 113.906 27.76 113.33 27.408C113.042 27.248 112.562 27.056 111.89 26.832C111.218 26.608 110.354 26.352 109.298 26.064C107.794 25.68 106.482 25.232 105.362 24.72C104.274 24.176 103.378 23.552 102.674 22.848C102.034 22.176 101.538 21.44 101.186 20.64C100.834 19.808 100.658 18.88 100.658 17.856C100.658 16.672 100.93 15.6 101.474 14.64C102.05 13.68 102.802 12.848 103.73 12.144C104.69 11.44 105.778 10.912 106.994 10.56C108.242 10.176 109.522 9.98401 110.834 9.98401C112.242 9.98401 113.586 10.144 114.866 10.464C116.146 10.784 117.33 11.232 118.418 11.808C119.538 12.384 120.53 13.072 121.394 13.872L117.362 18.384C116.786 17.84 116.13 17.36 115.394 16.944C114.69 16.496 113.954 16.144 113.186 15.888C112.418 15.632 111.714 15.504 111.074 15.504C110.594 15.504 110.162 15.552 109.778 15.648C109.426 15.712 109.122 15.84 108.866 16.032C108.61 16.192 108.418 16.4 108.29 16.656C108.162 16.88 108.098 17.152 108.098 17.472C108.098 17.792 108.178 18.096 108.338 18.384C108.53 18.672 108.786 18.912 109.106 19.104C109.426 19.296 109.938 19.52 110.642 19.776C111.346 20 112.306 20.288 113.522 20.64C115.026 21.056 116.322 21.52 117.41 22.032C118.498 22.544 119.362 23.152 120.002 23.856C120.514 24.4 120.898 25.04 121.154 25.776C121.41 26.48 121.538 27.248 121.538 28.08C121.538 29.712 121.074 31.168 120.146 32.448C119.25 33.696 118.002 34.688 116.402 35.424C114.802 36.128 112.978 36.48 110.93 36.48Z" fill="white"/>
<path d="M69.9496 36L69.9496 4.08002L77.6296 4.08002V36H69.9496ZM65.4376 17.232V10.512L82.5736 10.512V17.232L65.4376 17.232Z" fill="white"/>
<path d="M51.8566 36.48C49.0406 36.48 46.5926 35.92 44.5126 34.8C42.4326 33.648 40.8166 32.096 39.6646 30.144C38.5126 28.16 37.9366 25.904 37.9366 23.376C37.9366 21.424 38.2566 19.632 38.8966 18C39.5366 16.368 40.4326 14.96 41.5846 13.776C42.7366 12.56 44.0966 11.632 45.6646 10.992C47.2646 10.32 49.0086 9.98401 50.8966 9.98401C52.6886 9.98401 54.3206 10.304 55.7926 10.944C57.2966 11.584 58.5926 12.48 59.6806 13.632C60.7687 14.784 61.6007 16.144 62.1767 17.712C62.7527 19.28 63.0086 20.992 62.9446 22.848L62.8966 24.912L42.5926 24.912L41.4886 20.592L56.6566 20.592L55.8406 21.504V20.544C55.7766 19.744 55.5206 19.04 55.0726 18.432C54.6566 17.792 54.0966 17.296 53.3926 16.944C52.6886 16.592 51.8886 16.416 50.9926 16.416C49.7446 16.416 48.6726 16.672 47.7766 17.184C46.9126 17.664 46.2566 18.384 45.8086 19.344C45.3606 20.272 45.1366 21.424 45.1366 22.8C45.1366 24.208 45.4246 25.44 46.0006 26.496C46.6086 27.52 47.4726 28.32 48.5926 28.896C49.7446 29.472 51.1046 29.76 52.6726 29.76C53.7606 29.76 54.7206 29.6 55.5526 29.28C56.4166 28.96 57.3446 28.416 58.3366 27.648L61.9366 32.736C60.9446 33.6 59.8886 34.304 58.7686 34.848C57.6486 35.392 56.4966 35.792 55.3126 36.048C54.1606 36.336 53.0086 36.48 51.8566 36.48Z" fill="white"/>
<path d="M18.5818 36.48C15.8938 36.48 13.4618 36.048 11.2858 35.184C9.10977 34.32 7.23778 33.104 5.66978 31.536C4.10178 29.968 2.90177 28.128 2.06977 26.016C1.23777 23.872 0.821777 21.552 0.821777 19.056C0.821777 16.56 1.25378 14.272 2.11777 12.192C3.01378 10.08 4.27777 8.24 5.90977 6.672C7.54177 5.104 9.46178 3.888 11.6698 3.024C13.9098 2.16 16.3418 1.728 18.9658 1.728C20.8218 1.728 22.5658 1.968 24.1978 2.448C25.8618 2.928 27.3658 3.584 28.7098 4.416C30.0538 5.248 31.1898 6.208 32.1178 7.296L27.1738 12.528C26.3738 11.76 25.5418 11.12 24.6778 10.608C23.8458 10.096 22.9498 9.696 21.9898 9.408C21.0298 9.088 20.0058 8.928 18.9178 8.928C17.5098 8.928 16.2138 9.184 15.0298 9.696C13.8778 10.208 12.8538 10.928 11.9578 11.856C11.0938 12.752 10.4218 13.824 9.94177 15.072C9.46177 16.288 9.22177 17.616 9.22177 19.056C9.22177 20.496 9.47778 21.84 9.98978 23.088C10.5018 24.336 11.2058 25.424 12.1018 26.352C12.9978 27.248 14.0538 27.968 15.2698 28.512C16.5178 29.024 17.8458 29.28 19.2538 29.28C20.2458 29.28 21.1738 29.12 22.0378 28.8C22.9338 28.48 23.7018 28.048 24.3418 27.504C24.9818 26.96 25.4938 26.32 25.8778 25.584C26.2618 24.816 26.4538 24 26.4538 23.136V21.888L27.5098 23.52L18.2458 23.52L18.2458 17.136L34.0378 17.136C34.1018 17.488 34.1498 17.968 34.1818 18.576C34.2138 19.184 34.2298 19.776 34.2298 20.352C34.2618 20.928 34.2778 21.36 34.2778 21.648C34.2778 23.824 33.8778 25.824 33.0778 27.648C32.3098 29.44 31.2218 30.992 29.8138 32.304C28.4058 33.616 26.7418 34.64 24.8218 35.376C22.9018 36.112 20.8218 36.48 18.5818 36.48Z" fill="white"/>
</svg>
