<svg width="507" height="75" viewBox="0 0 507 75" fill="none" xmlns="http://www.w3.org/2000/svg">
<path d="M274.033 70V65.041C274.033 64.501 273.982 64.006 273.88 63.556C273.778 63.1 273.613 62.704 273.385 62.368C273.163 62.026 272.872 61.762 272.512 61.576C272.158 61.39 271.726 61.297 271.216 61.297C270.748 61.297 270.334 61.378 269.974 61.54C269.62 61.702 269.32 61.936 269.074 62.242C268.834 62.542 268.651 62.908 268.525 63.34C268.399 63.772 268.336 64.264 268.336 64.816L267.4 64.609C267.4 63.613 267.574 62.776 267.922 62.098C268.27 61.42 268.75 60.907 269.362 60.559C269.974 60.211 270.676 60.037 271.468 60.037C272.05 60.037 272.557 60.127 272.989 60.307C273.427 60.487 273.796 60.73 274.096 61.036C274.402 61.342 274.648 61.693 274.834 62.089C275.02 62.479 275.155 62.896 275.239 63.34C275.323 63.778 275.365 64.216 275.365 64.654V70H274.033ZM267.004 70V60.28H268.201V62.674H268.336V70H267.004Z" fill="#DEE1E6"/>
<path d="M262.992 58.435V56.95H264.315V58.435H262.992ZM262.992 70V60.28H264.315V70H262.992Z" fill="#DEE1E6"/>
<path d="M256.02 74.59C255.522 74.59 255.03 74.515 254.544 74.365C254.064 74.221 253.62 73.99 253.212 73.672C252.804 73.36 252.462 72.952 252.186 72.448L253.383 71.782C253.653 72.322 254.031 72.709 254.517 72.943C255.009 73.183 255.51 73.303 256.02 73.303C256.722 73.303 257.289 73.171 257.721 72.907C258.159 72.649 258.477 72.265 258.675 71.755C258.873 71.245 258.969 70.609 258.963 69.847V67.255H259.116V60.28H260.295V69.865C260.295 70.141 260.286 70.405 260.268 70.657C260.256 70.915 260.229 71.167 260.187 71.413C260.073 72.139 259.836 72.736 259.476 73.204C259.122 73.672 258.654 74.02 258.072 74.248C257.496 74.476 256.812 74.59 256.02 74.59ZM255.93 70.27C255.024 70.27 254.25 70.045 253.608 69.595C252.966 69.139 252.474 68.524 252.132 67.75C251.79 66.976 251.619 66.103 251.619 65.131C251.619 64.165 251.787 63.295 252.123 62.521C252.465 61.747 252.954 61.135 253.59 60.685C254.226 60.235 254.988 60.01 255.876 60.01C256.788 60.01 257.556 60.232 258.18 60.676C258.804 61.12 259.275 61.729 259.593 62.503C259.917 63.271 260.079 64.147 260.079 65.131C260.079 66.097 259.92 66.97 259.602 67.75C259.284 68.524 258.816 69.139 258.198 69.595C257.58 70.045 256.824 70.27 255.93 70.27ZM256.065 69.037C256.755 69.037 257.325 68.869 257.775 68.533C258.225 68.197 258.561 67.735 258.783 67.147C259.005 66.553 259.116 65.881 259.116 65.131C259.116 64.369 259.005 63.697 258.783 63.115C258.561 62.527 258.225 62.068 257.775 61.738C257.331 61.408 256.77 61.243 256.092 61.243C255.396 61.243 254.82 61.414 254.364 61.756C253.908 62.098 253.569 62.563 253.347 63.151C253.131 63.739 253.023 64.399 253.023 65.131C253.023 65.869 253.134 66.535 253.356 67.129C253.584 67.717 253.923 68.182 254.373 68.524C254.823 68.866 255.387 69.037 256.065 69.037Z" fill="#DEE1E6"/>
<path d="M248.138 58.435V56.95H249.461V58.435H248.138ZM248.138 70V60.28H249.461V70H248.138Z" fill="#DEE1E6"/>
<path d="M241.472 70V60.28H242.66V62.62L242.426 62.314C242.534 62.026 242.675 61.762 242.849 61.522C243.023 61.276 243.212 61.075 243.416 60.919C243.668 60.697 243.962 60.529 244.298 60.415C244.634 60.295 244.973 60.226 245.315 60.208C245.657 60.184 245.969 60.208 246.251 60.28V61.522C245.897 61.432 245.51 61.411 245.09 61.459C244.67 61.507 244.283 61.675 243.929 61.963C243.605 62.215 243.362 62.518 243.2 62.872C243.038 63.22 242.93 63.592 242.876 63.988C242.822 64.378 242.795 64.765 242.795 65.149V70H241.472Z" fill="#DEE1E6"/>
<path d="M234.879 70.27C233.913 70.27 233.088 70.051 232.404 69.613C231.72 69.175 231.195 68.569 230.829 67.795C230.463 67.021 230.28 66.133 230.28 65.131C230.28 64.111 230.466 63.217 230.838 62.449C231.21 61.681 231.738 61.084 232.422 60.658C233.112 60.226 233.931 60.01 234.879 60.01C235.851 60.01 236.679 60.229 237.363 60.667C238.053 61.099 238.578 61.702 238.938 62.476C239.304 63.244 239.487 64.129 239.487 65.131C239.487 66.151 239.304 67.048 238.938 67.822C238.572 68.59 238.044 69.19 237.354 69.622C236.664 70.054 235.839 70.27 234.879 70.27ZM234.879 69.001C235.959 69.001 236.763 68.644 237.291 67.93C237.819 67.21 238.083 66.277 238.083 65.131C238.083 63.955 237.816 63.019 237.282 62.323C236.754 61.627 235.953 61.279 234.879 61.279C234.153 61.279 233.553 61.444 233.079 61.774C232.611 62.098 232.26 62.551 232.026 63.133C231.798 63.709 231.684 64.375 231.684 65.131C231.684 66.301 231.954 67.24 232.494 67.948C233.034 68.65 233.829 69.001 234.879 69.001Z" fill="#DEE1E6"/>
<path d="M506.665 42C506.119 42.114 505.579 42.159 505.045 42.135C504.517 42.111 504.043 41.997 503.623 41.793C503.209 41.589 502.894 41.271 502.678 40.839C502.504 40.479 502.408 40.116 502.39 39.75C502.378 39.378 502.372 38.955 502.372 38.481V29.58H503.686V38.427C503.686 38.835 503.689 39.177 503.695 39.453C503.707 39.723 503.77 39.963 503.884 40.173C504.1 40.575 504.442 40.815 504.91 40.893C505.384 40.971 505.969 40.953 506.665 40.839V42ZM500.293 33.414V32.28H506.665V33.414H500.293Z" fill="#DEE1E6"/>
<path d="M494.152 42.27C493.42 42.27 492.805 42.138 492.307 41.874C491.815 41.61 491.446 41.259 491.2 40.821C490.954 40.383 490.831 39.906 490.831 39.39C490.831 38.862 490.936 38.412 491.146 38.04C491.362 37.662 491.653 37.353 492.019 37.113C492.391 36.873 492.82 36.69 493.306 36.564C493.798 36.444 494.341 36.339 494.935 36.249C495.535 36.153 496.12 36.072 496.69 36.006C497.266 35.934 497.77 35.865 498.202 35.799L497.734 36.087C497.752 35.127 497.566 34.416 497.176 33.954C496.786 33.492 496.108 33.261 495.142 33.261C494.476 33.261 493.912 33.411 493.45 33.711C492.994 34.011 492.673 34.485 492.487 35.133L491.2 34.755C491.422 33.885 491.869 33.21 492.541 32.73C493.213 32.25 494.086 32.01 495.16 32.01C496.048 32.01 496.801 32.178 497.419 32.514C498.043 32.844 498.484 33.324 498.742 33.954C498.862 34.236 498.94 34.551 498.976 34.899C499.012 35.247 499.03 35.601 499.03 35.961V42H497.851V39.561L498.193 39.705C497.863 40.539 497.35 41.175 496.654 41.613C495.958 42.051 495.124 42.27 494.152 42.27ZM494.305 41.127C494.923 41.127 495.463 41.016 495.925 40.794C496.387 40.572 496.759 40.269 497.041 39.885C497.323 39.495 497.506 39.057 497.59 38.571C497.662 38.259 497.701 37.917 497.707 37.545C497.713 37.167 497.716 36.885 497.716 36.699L498.22 36.96C497.77 37.02 497.281 37.08 496.753 37.14C496.231 37.2 495.715 37.269 495.205 37.347C494.701 37.425 494.245 37.518 493.837 37.626C493.561 37.704 493.294 37.815 493.036 37.959C492.778 38.097 492.565 38.283 492.397 38.517C492.235 38.751 492.154 39.042 492.154 39.39C492.154 39.672 492.223 39.945 492.361 40.209C492.505 40.473 492.733 40.692 493.045 40.866C493.363 41.04 493.783 41.127 494.305 41.127Z" fill="#DEE1E6"/>
<path d="M489.456 42C488.91 42.114 488.37 42.159 487.836 42.135C487.308 42.111 486.834 41.997 486.414 41.793C486 41.589 485.685 41.271 485.469 40.839C485.295 40.479 485.199 40.116 485.181 39.75C485.169 39.378 485.163 38.955 485.163 38.481V29.58H486.477V38.427C486.477 38.835 486.48 39.177 486.486 39.453C486.498 39.723 486.561 39.963 486.675 40.173C486.891 40.575 487.233 40.815 487.701 40.893C488.175 40.971 488.76 40.953 489.456 40.839V42ZM483.084 33.414V32.28H489.456V33.414H483.084Z" fill="#DEE1E6"/>
<path d="M476.943 42.27C476.211 42.27 475.596 42.138 475.098 41.874C474.606 41.61 474.237 41.259 473.991 40.821C473.745 40.383 473.622 39.906 473.622 39.39C473.622 38.862 473.727 38.412 473.937 38.04C474.153 37.662 474.444 37.353 474.81 37.113C475.182 36.873 475.611 36.69 476.097 36.564C476.589 36.444 477.132 36.339 477.726 36.249C478.326 36.153 478.911 36.072 479.481 36.006C480.057 35.934 480.561 35.865 480.993 35.799L480.525 36.087C480.543 35.127 480.357 34.416 479.967 33.954C479.577 33.492 478.899 33.261 477.933 33.261C477.267 33.261 476.703 33.411 476.241 33.711C475.785 34.011 475.464 34.485 475.278 35.133L473.991 34.755C474.213 33.885 474.66 33.21 475.332 32.73C476.004 32.25 476.877 32.01 477.951 32.01C478.839 32.01 479.592 32.178 480.21 32.514C480.834 32.844 481.275 33.324 481.533 33.954C481.653 34.236 481.731 34.551 481.767 34.899C481.803 35.247 481.821 35.601 481.821 35.961V42H480.642V39.561L480.984 39.705C480.654 40.539 480.141 41.175 479.445 41.613C478.749 42.051 477.915 42.27 476.943 42.27ZM477.096 41.127C477.714 41.127 478.254 41.016 478.716 40.794C479.178 40.572 479.55 40.269 479.832 39.885C480.114 39.495 480.297 39.057 480.381 38.571C480.453 38.259 480.492 37.917 480.498 37.545C480.504 37.167 480.507 36.885 480.507 36.699L481.011 36.96C480.561 37.02 480.072 37.08 479.544 37.14C479.022 37.2 478.506 37.269 477.996 37.347C477.492 37.425 477.036 37.518 476.628 37.626C476.352 37.704 476.085 37.815 475.827 37.959C475.569 38.097 475.356 38.283 475.188 38.517C475.026 38.751 474.945 39.042 474.945 39.39C474.945 39.672 475.014 39.945 475.152 40.209C475.296 40.473 475.524 40.692 475.836 40.866C476.154 41.04 476.574 41.127 477.096 41.127Z" fill="#DEE1E6"/>
<path d="M467.263 42.27C466.357 42.27 465.583 42.045 464.941 41.595C464.299 41.139 463.807 40.524 463.465 39.75C463.123 38.976 462.952 38.103 462.952 37.131C462.952 36.165 463.12 35.295 463.456 34.521C463.798 33.747 464.287 33.135 464.923 32.685C465.559 32.235 466.321 32.01 467.209 32.01C468.121 32.01 468.889 32.232 469.513 32.676C470.137 33.12 470.608 33.729 470.926 34.503C471.25 35.271 471.412 36.147 471.412 37.131C471.412 38.097 471.253 38.97 470.935 39.75C470.617 40.524 470.149 41.139 469.531 41.595C468.913 42.045 468.157 42.27 467.263 42.27ZM467.398 41.037C468.088 41.037 468.658 40.869 469.108 40.533C469.558 40.197 469.894 39.735 470.116 39.147C470.338 38.553 470.449 37.881 470.449 37.131C470.449 36.369 470.338 35.697 470.116 35.115C469.894 34.527 469.558 34.068 469.108 33.738C468.664 33.408 468.103 33.243 467.425 33.243C466.729 33.243 466.153 33.414 465.697 33.756C465.241 34.098 464.902 34.563 464.68 35.151C464.464 35.739 464.356 36.399 464.356 37.131C464.356 37.869 464.467 38.535 464.689 39.129C464.917 39.717 465.256 40.182 465.706 40.524C466.156 40.866 466.72 41.037 467.398 41.037ZM470.449 42V34.683H470.305V29.04H471.637V42H470.449Z" fill="#DEE1E6"/>
<path d="M459.471 30.435V28.95H460.794V30.435H459.471ZM459.471 42V32.28H460.794V42H459.471Z" fill="#DEE1E6"/>
<path d="M453.004 42.27C452.11 42.27 451.354 42.045 450.736 41.595C450.118 41.139 449.65 40.524 449.332 39.75C449.014 38.97 448.855 38.097 448.855 37.131C448.855 36.147 449.014 35.271 449.332 34.503C449.656 33.729 450.13 33.12 450.754 32.676C451.378 32.232 452.146 32.01 453.058 32.01C453.946 32.01 454.708 32.235 455.344 32.685C455.98 33.135 456.466 33.747 456.802 34.521C457.144 35.295 457.315 36.165 457.315 37.131C457.315 38.103 457.144 38.976 456.802 39.75C456.46 40.524 455.968 41.139 455.326 41.595C454.684 42.045 453.91 42.27 453.004 42.27ZM448.63 46.32V32.28H449.818V39.597H449.962V46.32H448.63ZM452.869 41.037C453.547 41.037 454.111 40.866 454.561 40.524C455.011 40.182 455.347 39.717 455.569 39.129C455.797 38.535 455.911 37.869 455.911 37.131C455.911 36.399 455.8 35.739 455.578 35.151C455.356 34.563 455.017 34.098 454.561 33.756C454.111 33.414 453.538 33.243 452.842 33.243C452.164 33.243 451.6 33.408 451.15 33.738C450.706 34.068 450.373 34.527 450.151 35.115C449.929 35.697 449.818 36.369 449.818 37.131C449.818 37.881 449.929 38.553 450.151 39.147C450.373 39.735 450.709 40.197 451.159 40.533C451.609 40.869 452.179 41.037 452.869 41.037Z" fill="#DEE1E6"/>
<path d="M441.668 42.243C441.086 42.243 440.576 42.153 440.138 41.973C439.706 41.793 439.337 41.55 439.031 41.244C438.731 40.938 438.488 40.59 438.302 40.2C438.116 39.804 437.981 39.387 437.897 38.949C437.813 38.505 437.771 38.064 437.771 37.626V32.28H439.103V37.239C439.103 37.773 439.154 38.268 439.256 38.724C439.358 39.18 439.52 39.579 439.742 39.921C439.97 40.257 440.261 40.518 440.615 40.704C440.975 40.89 441.41 40.983 441.92 40.983C442.388 40.983 442.799 40.902 443.153 40.74C443.513 40.578 443.813 40.347 444.053 40.047C444.299 39.741 444.485 39.372 444.611 38.94C444.737 38.502 444.8 38.01 444.8 37.464L445.736 37.671C445.736 38.667 445.562 39.504 445.214 40.182C444.866 40.86 444.386 41.373 443.774 41.721C443.162 42.069 442.46 42.243 441.668 42.243ZM444.935 42V39.606H444.8V32.28H446.123V42H444.935Z" fill="#DEE1E6"/>
<path d="M432.017 42.27C431.039 42.27 430.211 42.051 429.533 41.613C428.855 41.175 428.339 40.572 427.985 39.804C427.637 39.03 427.457 38.142 427.445 37.14C427.457 36.12 427.643 35.226 428.003 34.458C428.363 33.684 428.882 33.084 429.56 32.658C430.238 32.226 431.06 32.01 432.026 32.01C433.01 32.01 433.865 32.25 434.591 32.73C435.323 33.21 435.824 33.867 436.094 34.701L434.798 35.115C434.57 34.533 434.207 34.083 433.709 33.765C433.217 33.441 432.653 33.279 432.017 33.279C431.303 33.279 430.712 33.444 430.244 33.774C429.776 34.098 429.428 34.551 429.2 35.133C428.972 35.715 428.855 36.384 428.849 37.14C428.861 38.304 429.131 39.24 429.659 39.948C430.187 40.65 430.973 41.001 432.017 41.001C432.677 41.001 433.238 40.851 433.7 40.551C434.168 40.245 434.522 39.801 434.762 39.219L436.094 39.615C435.734 40.479 435.206 41.139 434.51 41.595C433.814 42.045 432.983 42.27 432.017 42.27Z" fill="#DEE1E6"/>
<path d="M422.466 42C421.92 42.114 421.38 42.159 420.846 42.135C420.318 42.111 419.844 41.997 419.424 41.793C419.01 41.589 418.695 41.271 418.479 40.839C418.305 40.479 418.209 40.116 418.191 39.75C418.179 39.378 418.173 38.955 418.173 38.481V29.58H419.487V38.427C419.487 38.835 419.49 39.177 419.496 39.453C419.508 39.723 419.571 39.963 419.685 40.173C419.901 40.575 420.243 40.815 420.711 40.893C421.185 40.971 421.77 40.953 422.466 40.839V42ZM416.094 33.414V32.28H422.466V33.414H416.094Z" fill="#DEE1E6"/>
<path d="M413.153 30.435V28.95H414.476V30.435H413.153ZM413.153 42V32.28H414.476V42H413.153Z" fill="#DEE1E6"/>
<path d="M408.952 42V28.77H410.275V42H408.952Z" fill="#DEE1E6"/>
<path d="M402.355 42.27C401.407 42.27 400.585 42.06 399.889 41.64C399.199 41.22 398.662 40.629 398.278 39.867C397.894 39.105 397.702 38.211 397.702 37.185C397.702 36.123 397.891 35.205 398.269 34.431C398.647 33.657 399.178 33.06 399.862 32.64C400.552 32.22 401.365 32.01 402.301 32.01C403.261 32.01 404.08 32.232 404.758 32.676C405.436 33.114 405.949 33.744 406.297 34.566C406.645 35.388 406.804 36.369 406.774 37.509H405.424V37.041C405.4 35.781 405.127 34.83 404.605 34.188C404.089 33.546 403.333 33.225 402.337 33.225C401.293 33.225 400.492 33.564 399.934 34.242C399.382 34.92 399.106 35.886 399.106 37.14C399.106 38.364 399.382 39.315 399.934 39.993C400.492 40.665 401.281 41.001 402.301 41.001C402.997 41.001 403.603 40.842 404.119 40.524C404.641 40.2 405.052 39.735 405.352 39.129L406.585 39.606C406.201 40.452 405.634 41.109 404.884 41.577C404.14 42.039 403.297 42.27 402.355 42.27ZM398.638 37.509V36.402H406.063V37.509H398.638Z" fill="#DEE1E6"/>
<path d="M390.973 42L390.982 35.619C390.982 34.869 390.772 34.281 390.352 33.855C389.938 33.423 389.41 33.207 388.768 33.207C388.402 33.207 388.045 33.291 387.697 33.459C387.349 33.627 387.061 33.897 386.833 34.269C386.611 34.641 386.5 35.127 386.5 35.727L385.717 35.502C385.699 34.806 385.834 34.197 386.122 33.675C386.416 33.153 386.818 32.748 387.328 32.46C387.844 32.166 388.426 32.019 389.074 32.019C390.052 32.019 390.835 32.322 391.423 32.928C392.011 33.528 392.305 34.341 392.305 35.367L392.296 42H390.973ZM379.372 42V32.28H380.56V34.674H380.704V42H379.372ZM385.186 42L385.195 35.709C385.195 34.935 384.988 34.326 384.574 33.882C384.166 33.432 383.626 33.207 382.954 33.207C382.282 33.207 381.739 33.438 381.325 33.9C380.911 34.356 380.704 34.965 380.704 35.727L379.912 35.295C379.912 34.671 380.059 34.113 380.353 33.621C380.647 33.123 381.049 32.733 381.559 32.451C382.069 32.163 382.648 32.019 383.296 32.019C383.914 32.019 384.463 32.151 384.943 32.415C385.429 32.679 385.81 33.063 386.086 33.567C386.362 34.071 386.5 34.683 386.5 35.403L386.491 42H385.186Z" fill="#DEE1E6"/>
<path d="M375.36 30.435V28.95H376.683V30.435H375.36ZM375.36 42V32.28H376.683V42H375.36Z" fill="#DEE1E6"/>
<path d="M371.512 42V37.041C371.512 36.501 371.461 36.006 371.359 35.556C371.257 35.1 371.092 34.704 370.864 34.368C370.642 34.026 370.351 33.762 369.991 33.576C369.637 33.39 369.205 33.297 368.695 33.297C368.227 33.297 367.813 33.378 367.453 33.54C367.099 33.702 366.799 33.936 366.553 34.242C366.313 34.542 366.13 34.908 366.004 35.34C365.878 35.772 365.815 36.264 365.815 36.816L364.879 36.609C364.879 35.613 365.053 34.776 365.401 34.098C365.749 33.42 366.229 32.907 366.841 32.559C367.453 32.211 368.155 32.037 368.947 32.037C369.529 32.037 370.036 32.127 370.468 32.307C370.906 32.487 371.275 32.73 371.575 33.036C371.881 33.342 372.127 33.693 372.313 34.089C372.499 34.479 372.634 34.896 372.718 35.34C372.802 35.778 372.844 36.216 372.844 36.654V42H371.512ZM364.483 42V32.28H365.68V34.674H365.815V42H364.483Z" fill="#DEE1E6"/>
<path d="M358.34 42.27C357.392 42.27 356.57 42.06 355.874 41.64C355.184 41.22 354.647 40.629 354.263 39.867C353.879 39.105 353.687 38.211 353.687 37.185C353.687 36.123 353.876 35.205 354.254 34.431C354.632 33.657 355.163 33.06 355.847 32.64C356.537 32.22 357.35 32.01 358.286 32.01C359.246 32.01 360.065 32.232 360.743 32.676C361.421 33.114 361.934 33.744 362.282 34.566C362.63 35.388 362.789 36.369 362.759 37.509H361.409V37.041C361.385 35.781 361.112 34.83 360.59 34.188C360.074 33.546 359.318 33.225 358.322 33.225C357.278 33.225 356.477 33.564 355.919 34.242C355.367 34.92 355.091 35.886 355.091 37.14C355.091 38.364 355.367 39.315 355.919 39.993C356.477 40.665 357.266 41.001 358.286 41.001C358.982 41.001 359.588 40.842 360.104 40.524C360.626 40.2 361.037 39.735 361.337 39.129L362.57 39.606C362.186 40.452 361.619 41.109 360.869 41.577C360.125 42.039 359.282 42.27 358.34 42.27ZM354.623 37.509V36.402H362.048V37.509H354.623Z" fill="#DEE1E6"/>
<path d="M348.708 42C348.162 42.114 347.622 42.159 347.088 42.135C346.56 42.111 346.086 41.997 345.666 41.793C345.252 41.589 344.937 41.271 344.721 40.839C344.547 40.479 344.451 40.116 344.433 39.75C344.421 39.378 344.415 38.955 344.415 38.481V29.58H345.729V38.427C345.729 38.835 345.732 39.177 345.738 39.453C345.75 39.723 345.813 39.963 345.927 40.173C346.143 40.575 346.485 40.815 346.953 40.893C347.427 40.971 348.012 40.953 348.708 40.839V42ZM342.336 33.414V32.28H348.708V33.414H342.336Z" fill="#DEE1E6"/>
<path d="M336.195 42.27C335.463 42.27 334.848 42.138 334.35 41.874C333.858 41.61 333.489 41.259 333.243 40.821C332.997 40.383 332.874 39.906 332.874 39.39C332.874 38.862 332.979 38.412 333.189 38.04C333.405 37.662 333.696 37.353 334.062 37.113C334.434 36.873 334.863 36.69 335.349 36.564C335.841 36.444 336.384 36.339 336.978 36.249C337.578 36.153 338.163 36.072 338.733 36.006C339.309 35.934 339.813 35.865 340.245 35.799L339.777 36.087C339.795 35.127 339.609 34.416 339.219 33.954C338.829 33.492 338.151 33.261 337.185 33.261C336.519 33.261 335.955 33.411 335.493 33.711C335.037 34.011 334.716 34.485 334.53 35.133L333.243 34.755C333.465 33.885 333.912 33.21 334.584 32.73C335.256 32.25 336.129 32.01 337.203 32.01C338.091 32.01 338.844 32.178 339.462 32.514C340.086 32.844 340.527 33.324 340.785 33.954C340.905 34.236 340.983 34.551 341.019 34.899C341.055 35.247 341.073 35.601 341.073 35.961V42H339.894V39.561L340.236 39.705C339.906 40.539 339.393 41.175 338.697 41.613C338.001 42.051 337.167 42.27 336.195 42.27ZM336.348 41.127C336.966 41.127 337.506 41.016 337.968 40.794C338.43 40.572 338.802 40.269 339.084 39.885C339.366 39.495 339.549 39.057 339.633 38.571C339.705 38.259 339.744 37.917 339.75 37.545C339.756 37.167 339.759 36.885 339.759 36.699L340.263 36.96C339.813 37.02 339.324 37.08 338.796 37.14C338.274 37.2 337.758 37.269 337.248 37.347C336.744 37.425 336.288 37.518 335.88 37.626C335.604 37.704 335.337 37.815 335.079 37.959C334.821 38.097 334.608 38.283 334.44 38.517C334.278 38.751 334.197 39.042 334.197 39.39C334.197 39.672 334.266 39.945 334.404 40.209C334.548 40.473 334.776 40.692 335.088 40.866C335.406 41.04 335.826 41.127 336.348 41.127Z" fill="#DEE1E6"/>
<path d="M326.444 42.243C325.862 42.243 325.352 42.153 324.914 41.973C324.482 41.793 324.113 41.55 323.807 41.244C323.507 40.938 323.264 40.59 323.078 40.2C322.892 39.804 322.757 39.387 322.673 38.949C322.589 38.505 322.547 38.064 322.547 37.626V32.28H323.879V37.239C323.879 37.773 323.93 38.268 324.032 38.724C324.134 39.18 324.296 39.579 324.518 39.921C324.746 40.257 325.037 40.518 325.391 40.704C325.751 40.89 326.186 40.983 326.696 40.983C327.164 40.983 327.575 40.902 327.929 40.74C328.289 40.578 328.589 40.347 328.829 40.047C329.075 39.741 329.261 39.372 329.387 38.94C329.513 38.502 329.576 38.01 329.576 37.464L330.512 37.671C330.512 38.667 330.338 39.504 329.99 40.182C329.642 40.86 329.162 41.373 328.55 41.721C327.938 42.069 327.236 42.243 326.444 42.243ZM329.711 42V39.606H329.576V32.28H330.899V42H329.711Z" fill="#DEE1E6"/>
<path d="M315.828 42.27C314.922 42.27 314.148 42.045 313.506 41.595C312.864 41.139 312.372 40.524 312.03 39.75C311.688 38.976 311.517 38.103 311.517 37.131C311.517 36.165 311.685 35.295 312.021 34.521C312.363 33.747 312.852 33.135 313.488 32.685C314.124 32.235 314.886 32.01 315.774 32.01C316.686 32.01 317.454 32.232 318.078 32.676C318.702 33.12 319.173 33.729 319.491 34.503C319.815 35.271 319.977 36.147 319.977 37.131C319.977 38.097 319.818 38.97 319.5 39.75C319.182 40.524 318.714 41.139 318.096 41.595C317.478 42.045 316.722 42.27 315.828 42.27ZM315.963 41.037C316.653 41.037 317.223 40.869 317.673 40.533C318.123 40.197 318.459 39.735 318.681 39.147C318.903 38.553 319.014 37.881 319.014 37.131C319.014 36.369 318.903 35.697 318.681 35.115C318.459 34.527 318.123 34.068 317.673 33.738C317.229 33.408 316.668 33.243 315.99 33.243C315.294 33.243 314.718 33.414 314.262 33.756C313.806 34.098 313.467 34.563 313.245 35.151C313.029 35.739 312.921 36.399 312.921 37.131C312.921 37.869 313.032 38.535 313.254 39.129C313.482 39.717 313.821 40.182 314.271 40.524C314.721 40.866 315.285 41.037 315.963 41.037ZM318.87 46.32V39.597H319.014V32.28H320.202V46.32H318.87Z" fill="#DEE1E6"/>
<path d="M305.641 42.27C304.693 42.27 303.871 42.06 303.175 41.64C302.485 41.22 301.948 40.629 301.564 39.867C301.18 39.105 300.988 38.211 300.988 37.185C300.988 36.123 301.177 35.205 301.555 34.431C301.933 33.657 302.464 33.06 303.148 32.64C303.838 32.22 304.651 32.01 305.587 32.01C306.547 32.01 307.366 32.232 308.044 32.676C308.722 33.114 309.235 33.744 309.583 34.566C309.931 35.388 310.09 36.369 310.06 37.509H308.71V37.041C308.686 35.781 308.413 34.83 307.891 34.188C307.375 33.546 306.619 33.225 305.623 33.225C304.579 33.225 303.778 33.564 303.22 34.242C302.668 34.92 302.392 35.886 302.392 37.14C302.392 38.364 302.668 39.315 303.22 39.993C303.778 40.665 304.567 41.001 305.587 41.001C306.283 41.001 306.889 40.842 307.405 40.524C307.927 40.2 308.338 39.735 308.638 39.129L309.871 39.606C309.487 40.452 308.92 41.109 308.17 41.577C307.426 42.039 306.583 42.27 305.641 42.27ZM301.924 37.509V36.402H309.349V37.509H301.924Z" fill="#DEE1E6"/>
<path d="M295.698 42.261C294.558 42.261 293.619 42.015 292.881 41.523C292.149 41.031 291.699 40.347 291.531 39.471L292.881 39.246C293.025 39.798 293.352 40.239 293.862 40.569C294.378 40.893 295.014 41.055 295.77 41.055C296.508 41.055 297.09 40.902 297.516 40.596C297.942 40.284 298.155 39.861 298.155 39.327C298.155 39.027 298.086 38.784 297.948 38.598C297.816 38.406 297.543 38.229 297.129 38.067C296.715 37.905 296.097 37.713 295.275 37.491C294.393 37.251 293.703 37.011 293.205 36.771C292.707 36.531 292.353 36.255 292.143 35.943C291.933 35.625 291.828 35.238 291.828 34.782C291.828 34.23 291.984 33.747 292.296 33.333C292.608 32.913 293.04 32.589 293.592 32.361C294.144 32.127 294.786 32.01 295.518 32.01C296.25 32.01 296.904 32.13 297.48 32.37C298.062 32.604 298.53 32.934 298.884 33.36C299.238 33.786 299.448 34.281 299.514 34.845L298.164 35.088C298.074 34.518 297.789 34.068 297.309 33.738C296.835 33.402 296.232 33.228 295.5 33.216C294.81 33.198 294.249 33.33 293.817 33.612C293.385 33.888 293.169 34.257 293.169 34.719C293.169 34.977 293.247 35.199 293.403 35.385C293.559 35.565 293.841 35.736 294.249 35.898C294.663 36.06 295.251 36.237 296.013 36.429C296.907 36.657 297.609 36.897 298.119 37.149C298.629 37.401 298.992 37.698 299.208 38.04C299.424 38.382 299.532 38.805 299.532 39.309C299.532 40.227 299.19 40.95 298.506 41.478C297.828 42 296.892 42.261 295.698 42.261Z" fill="#DEE1E6"/>
<path d="M288.403 42V37.041C288.403 36.501 288.352 36.006 288.25 35.556C288.148 35.1 287.983 34.704 287.755 34.368C287.533 34.026 287.242 33.762 286.882 33.576C286.528 33.39 286.096 33.297 285.586 33.297C285.118 33.297 284.704 33.378 284.344 33.54C283.99 33.702 283.69 33.936 283.444 34.242C283.204 34.542 283.021 34.908 282.895 35.34C282.769 35.772 282.706 36.264 282.706 36.816L281.77 36.609C281.77 35.613 281.944 34.776 282.292 34.098C282.64 33.42 283.12 32.907 283.732 32.559C284.344 32.211 285.046 32.037 285.838 32.037C286.42 32.037 286.927 32.127 287.359 32.307C287.797 32.487 288.166 32.73 288.466 33.036C288.772 33.342 289.018 33.693 289.204 34.089C289.39 34.479 289.525 34.896 289.609 35.34C289.693 35.778 289.735 36.216 289.735 36.654V42H288.403ZM281.374 42V32.28H282.571V34.674H282.706V42H281.374Z" fill="#DEE1E6"/>
<path d="M274.79 42.27C273.824 42.27 272.999 42.051 272.315 41.613C271.631 41.175 271.106 40.569 270.74 39.795C270.374 39.021 270.191 38.133 270.191 37.131C270.191 36.111 270.377 35.217 270.749 34.449C271.121 33.681 271.649 33.084 272.333 32.658C273.023 32.226 273.842 32.01 274.79 32.01C275.762 32.01 276.59 32.229 277.274 32.667C277.964 33.099 278.489 33.702 278.849 34.476C279.215 35.244 279.398 36.129 279.398 37.131C279.398 38.151 279.215 39.048 278.849 39.822C278.483 40.59 277.955 41.19 277.265 41.622C276.575 42.054 275.75 42.27 274.79 42.27ZM274.79 41.001C275.87 41.001 276.674 40.644 277.202 39.93C277.73 39.21 277.994 38.277 277.994 37.131C277.994 35.955 277.727 35.019 277.193 34.323C276.665 33.627 275.864 33.279 274.79 33.279C274.064 33.279 273.464 33.444 272.99 33.774C272.522 34.098 272.171 34.551 271.937 35.133C271.709 35.709 271.595 36.375 271.595 37.131C271.595 38.301 271.865 39.24 272.405 39.948C272.945 40.65 273.74 41.001 274.79 41.001Z" fill="#DEE1E6"/>
<path d="M265.06 42.27C264.082 42.27 263.254 42.051 262.576 41.613C261.898 41.175 261.382 40.572 261.028 39.804C260.68 39.03 260.5 38.142 260.488 37.14C260.5 36.12 260.686 35.226 261.046 34.458C261.406 33.684 261.925 33.084 262.603 32.658C263.281 32.226 264.103 32.01 265.069 32.01C266.053 32.01 266.908 32.25 267.634 32.73C268.366 33.21 268.867 33.867 269.137 34.701L267.841 35.115C267.613 34.533 267.25 34.083 266.752 33.765C266.26 33.441 265.696 33.279 265.06 33.279C264.346 33.279 263.755 33.444 263.287 33.774C262.819 34.098 262.471 34.551 262.243 35.133C262.015 35.715 261.898 36.384 261.892 37.14C261.904 38.304 262.174 39.24 262.702 39.948C263.23 40.65 264.016 41.001 265.06 41.001C265.72 41.001 266.281 40.851 266.743 40.551C267.211 40.245 267.565 39.801 267.805 39.219L269.137 39.615C268.777 40.479 268.249 41.139 267.553 41.595C266.857 42.045 266.026 42.27 265.06 42.27Z" fill="#DEE1E6"/>
<path d="M255.509 42C254.963 42.114 254.423 42.159 253.889 42.135C253.361 42.111 252.887 41.997 252.467 41.793C252.053 41.589 251.738 41.271 251.522 40.839C251.348 40.479 251.252 40.116 251.234 39.75C251.222 39.378 251.216 38.955 251.216 38.481V29.58H252.53V38.427C252.53 38.835 252.533 39.177 252.539 39.453C252.551 39.723 252.614 39.963 252.728 40.173C252.944 40.575 253.286 40.815 253.754 40.893C254.228 40.971 254.813 40.953 255.509 40.839V42ZM249.137 33.414V32.28H255.509V33.414H249.137Z" fill="#DEE1E6"/>
<path d="M246.196 30.435V28.95H247.519V30.435H246.196ZM246.196 42V32.28H247.519V42H246.196Z" fill="#DEE1E6"/>
<path d="M240.186 42.261C239.046 42.261 238.107 42.015 237.369 41.523C236.637 41.031 236.187 40.347 236.019 39.471L237.369 39.246C237.513 39.798 237.84 40.239 238.35 40.569C238.866 40.893 239.502 41.055 240.258 41.055C240.996 41.055 241.578 40.902 242.004 40.596C242.43 40.284 242.643 39.861 242.643 39.327C242.643 39.027 242.574 38.784 242.436 38.598C242.304 38.406 242.031 38.229 241.617 38.067C241.203 37.905 240.585 37.713 239.763 37.491C238.881 37.251 238.191 37.011 237.693 36.771C237.195 36.531 236.841 36.255 236.631 35.943C236.421 35.625 236.316 35.238 236.316 34.782C236.316 34.23 236.472 33.747 236.784 33.333C237.096 32.913 237.528 32.589 238.08 32.361C238.632 32.127 239.274 32.01 240.006 32.01C240.738 32.01 241.392 32.13 241.968 32.37C242.55 32.604 243.018 32.934 243.372 33.36C243.726 33.786 243.936 34.281 244.002 34.845L242.652 35.088C242.562 34.518 242.277 34.068 241.797 33.738C241.323 33.402 240.72 33.228 239.988 33.216C239.298 33.198 238.737 33.33 238.305 33.612C237.873 33.888 237.657 34.257 237.657 34.719C237.657 34.977 237.735 35.199 237.891 35.385C238.047 35.565 238.329 35.736 238.737 35.898C239.151 36.06 239.739 36.237 240.501 36.429C241.395 36.657 242.097 36.897 242.607 37.149C243.117 37.401 243.48 37.698 243.696 38.04C243.912 38.382 244.02 38.805 244.02 39.309C244.02 40.227 243.678 40.95 242.994 41.478C242.316 42 241.38 42.261 240.186 42.261Z" fill="#DEE1E6"/>
<path d="M226.164 46.59C225.666 46.59 225.174 46.515 224.688 46.365C224.208 46.221 223.764 45.99 223.356 45.672C222.948 45.36 222.606 44.952 222.33 44.448L223.527 43.782C223.797 44.322 224.175 44.709 224.661 44.943C225.153 45.183 225.654 45.303 226.164 45.303C226.866 45.303 227.433 45.171 227.865 44.907C228.303 44.649 228.621 44.265 228.819 43.755C229.017 43.245 229.113 42.609 229.107 41.847V39.255H229.26V32.28H230.439V41.865C230.439 42.141 230.43 42.405 230.412 42.657C230.4 42.915 230.373 43.167 230.331 43.413C230.217 44.139 229.98 44.736 229.62 45.204C229.266 45.672 228.798 46.02 228.216 46.248C227.64 46.476 226.956 46.59 226.164 46.59ZM226.074 42.27C225.168 42.27 224.394 42.045 223.752 41.595C223.11 41.139 222.618 40.524 222.276 39.75C221.934 38.976 221.763 38.103 221.763 37.131C221.763 36.165 221.931 35.295 222.267 34.521C222.609 33.747 223.098 33.135 223.734 32.685C224.37 32.235 225.132 32.01 226.02 32.01C226.932 32.01 227.7 32.232 228.324 32.676C228.948 33.12 229.419 33.729 229.737 34.503C230.061 35.271 230.223 36.147 230.223 37.131C230.223 38.097 230.064 38.97 229.746 39.75C229.428 40.524 228.96 41.139 228.342 41.595C227.724 42.045 226.968 42.27 226.074 42.27ZM226.209 41.037C226.899 41.037 227.469 40.869 227.919 40.533C228.369 40.197 228.705 39.735 228.927 39.147C229.149 38.553 229.26 37.881 229.26 37.131C229.26 36.369 229.149 35.697 228.927 35.115C228.705 34.527 228.369 34.068 227.919 33.738C227.475 33.408 226.914 33.243 226.236 33.243C225.54 33.243 224.964 33.414 224.508 33.756C224.052 34.098 223.713 34.563 223.491 35.151C223.275 35.739 223.167 36.399 223.167 37.131C223.167 37.869 223.278 38.535 223.5 39.129C223.728 39.717 224.067 40.182 224.517 40.524C224.967 40.866 225.531 41.037 226.209 41.037Z" fill="#DEE1E6"/>
<path d="M218.635 42V37.041C218.635 36.501 218.584 36.006 218.482 35.556C218.38 35.1 218.215 34.704 217.987 34.368C217.765 34.026 217.474 33.762 217.114 33.576C216.76 33.39 216.328 33.297 215.818 33.297C215.35 33.297 214.936 33.378 214.576 33.54C214.222 33.702 213.922 33.936 213.676 34.242C213.436 34.542 213.253 34.908 213.127 35.34C213.001 35.772 212.938 36.264 212.938 36.816L212.002 36.609C212.002 35.613 212.176 34.776 212.524 34.098C212.872 33.42 213.352 32.907 213.964 32.559C214.576 32.211 215.278 32.037 216.07 32.037C216.652 32.037 217.159 32.127 217.591 32.307C218.029 32.487 218.398 32.73 218.698 33.036C219.004 33.342 219.25 33.693 219.436 34.089C219.622 34.479 219.757 34.896 219.841 35.34C219.925 35.778 219.967 36.216 219.967 36.654V42H218.635ZM211.606 42V32.28H212.803V34.674H212.938V42H211.606Z" fill="#DEE1E6"/>
<path d="M207.594 30.435V28.95H208.917V30.435H207.594ZM207.594 42V32.28H208.917V42H207.594Z" fill="#DEE1E6"/>
<path d="M201.743 42.27C200.765 42.27 199.937 42.051 199.259 41.613C198.581 41.175 198.065 40.572 197.711 39.804C197.363 39.03 197.183 38.142 197.171 37.14C197.183 36.12 197.369 35.226 197.729 34.458C198.089 33.684 198.608 33.084 199.286 32.658C199.964 32.226 200.786 32.01 201.752 32.01C202.736 32.01 203.591 32.25 204.317 32.73C205.049 33.21 205.55 33.867 205.82 34.701L204.524 35.115C204.296 34.533 203.933 34.083 203.435 33.765C202.943 33.441 202.379 33.279 201.743 33.279C201.029 33.279 200.438 33.444 199.97 33.774C199.502 34.098 199.154 34.551 198.926 35.133C198.698 35.715 198.581 36.384 198.575 37.14C198.587 38.304 198.857 39.24 199.385 39.948C199.913 40.65 200.699 41.001 201.743 41.001C202.403 41.001 202.964 40.851 203.426 40.551C203.894 40.245 204.248 39.801 204.488 39.219L205.82 39.615C205.46 40.479 204.932 41.139 204.236 41.595C203.54 42.045 202.709 42.27 201.743 42.27Z" fill="#DEE1E6"/>
<path d="M193.69 30.435V28.95H195.013V30.435H193.69ZM193.69 42V32.28H195.013V42H193.69Z" fill="#DEE1E6"/>
<path d="M187.68 42.261C186.54 42.261 185.601 42.015 184.863 41.523C184.131 41.031 183.681 40.347 183.513 39.471L184.863 39.246C185.007 39.798 185.334 40.239 185.844 40.569C186.36 40.893 186.996 41.055 187.752 41.055C188.49 41.055 189.072 40.902 189.498 40.596C189.924 40.284 190.137 39.861 190.137 39.327C190.137 39.027 190.068 38.784 189.93 38.598C189.798 38.406 189.525 38.229 189.111 38.067C188.697 37.905 188.079 37.713 187.257 37.491C186.375 37.251 185.685 37.011 185.187 36.771C184.689 36.531 184.335 36.255 184.125 35.943C183.915 35.625 183.81 35.238 183.81 34.782C183.81 34.23 183.966 33.747 184.278 33.333C184.59 32.913 185.022 32.589 185.574 32.361C186.126 32.127 186.768 32.01 187.5 32.01C188.232 32.01 188.886 32.13 189.462 32.37C190.044 32.604 190.512 32.934 190.866 33.36C191.22 33.786 191.43 34.281 191.496 34.845L190.146 35.088C190.056 34.518 189.771 34.068 189.291 33.738C188.817 33.402 188.214 33.228 187.482 33.216C186.792 33.198 186.231 33.33 185.799 33.612C185.367 33.888 185.151 34.257 185.151 34.719C185.151 34.977 185.229 35.199 185.385 35.385C185.541 35.565 185.823 35.736 186.231 35.898C186.645 36.06 187.233 36.237 187.995 36.429C188.889 36.657 189.591 36.897 190.101 37.149C190.611 37.401 190.974 37.698 191.19 38.04C191.406 38.382 191.514 38.805 191.514 39.309C191.514 40.227 191.172 40.95 190.488 41.478C189.81 42 188.874 42.261 187.68 42.261Z" fill="#DEE1E6"/>
<path d="M180.032 30.435V28.95H181.355V30.435H180.032ZM180.032 42V32.28H181.355V42H180.032Z" fill="#DEE1E6"/>
<path d="M173.564 42.27C172.67 42.27 171.914 42.045 171.296 41.595C170.678 41.139 170.21 40.524 169.892 39.75C169.574 38.97 169.415 38.097 169.415 37.131C169.415 36.147 169.574 35.271 169.892 34.503C170.216 33.729 170.69 33.12 171.314 32.676C171.938 32.232 172.706 32.01 173.618 32.01C174.506 32.01 175.268 32.235 175.904 32.685C176.54 33.135 177.026 33.747 177.362 34.521C177.704 35.295 177.875 36.165 177.875 37.131C177.875 38.103 177.704 38.976 177.362 39.75C177.02 40.524 176.528 41.139 175.886 41.595C175.244 42.045 174.47 42.27 173.564 42.27ZM169.19 46.32V32.28H170.378V39.597H170.522V46.32H169.19ZM173.429 41.037C174.107 41.037 174.671 40.866 175.121 40.524C175.571 40.182 175.907 39.717 176.129 39.129C176.357 38.535 176.471 37.869 176.471 37.131C176.471 36.399 176.36 35.739 176.138 35.151C175.916 34.563 175.577 34.098 175.121 33.756C174.671 33.414 174.098 33.243 173.402 33.243C172.724 33.243 172.16 33.408 171.71 33.738C171.266 34.068 170.933 34.527 170.711 35.115C170.489 35.697 170.378 36.369 170.378 37.131C170.378 37.881 170.489 38.553 170.711 39.147C170.933 39.735 171.269 40.197 171.719 40.533C172.169 40.869 172.739 41.037 173.429 41.037Z" fill="#DEE1E6"/>
<path d="M165.178 30.435V28.95H166.501V30.435H165.178ZM165.178 42V32.28H166.501V42H165.178Z" fill="#DEE1E6"/>
<path d="M158.099 42.27C157.193 42.27 156.419 42.045 155.777 41.595C155.135 41.139 154.643 40.524 154.301 39.75C153.959 38.976 153.788 38.103 153.788 37.131C153.788 36.165 153.956 35.295 154.292 34.521C154.634 33.747 155.123 33.135 155.759 32.685C156.395 32.235 157.157 32.01 158.045 32.01C158.957 32.01 159.725 32.232 160.349 32.676C160.973 33.12 161.444 33.729 161.762 34.503C162.086 35.271 162.248 36.147 162.248 37.131C162.248 38.097 162.089 38.97 161.771 39.75C161.453 40.524 160.985 41.139 160.367 41.595C159.749 42.045 158.993 42.27 158.099 42.27ZM158.234 41.037C158.924 41.037 159.494 40.869 159.944 40.533C160.394 40.197 160.73 39.735 160.952 39.147C161.174 38.553 161.285 37.881 161.285 37.131C161.285 36.369 161.174 35.697 160.952 35.115C160.73 34.527 160.394 34.068 159.944 33.738C159.5 33.408 158.939 33.243 158.261 33.243C157.565 33.243 156.989 33.414 156.533 33.756C156.077 34.098 155.738 34.563 155.516 35.151C155.3 35.739 155.192 36.399 155.192 37.131C155.192 37.869 155.303 38.535 155.525 39.129C155.753 39.717 156.092 40.182 156.542 40.524C156.992 40.866 157.556 41.037 158.234 41.037ZM161.285 42V34.683H161.141V29.04H162.473V42H161.285Z" fill="#DEE1E6"/>
<path d="M147.107 42.27C146.375 42.27 145.76 42.138 145.262 41.874C144.77 41.61 144.401 41.259 144.155 40.821C143.909 40.383 143.786 39.906 143.786 39.39C143.786 38.862 143.891 38.412 144.101 38.04C144.317 37.662 144.608 37.353 144.974 37.113C145.346 36.873 145.775 36.69 146.261 36.564C146.753 36.444 147.296 36.339 147.89 36.249C148.49 36.153 149.075 36.072 149.645 36.006C150.221 35.934 150.725 35.865 151.157 35.799L150.689 36.087C150.707 35.127 150.521 34.416 150.131 33.954C149.741 33.492 149.063 33.261 148.097 33.261C147.431 33.261 146.867 33.411 146.405 33.711C145.949 34.011 145.628 34.485 145.442 35.133L144.155 34.755C144.377 33.885 144.824 33.21 145.496 32.73C146.168 32.25 147.041 32.01 148.115 32.01C149.003 32.01 149.756 32.178 150.374 32.514C150.998 32.844 151.439 33.324 151.697 33.954C151.817 34.236 151.895 34.551 151.931 34.899C151.967 35.247 151.985 35.601 151.985 35.961V42H150.806V39.561L151.148 39.705C150.818 40.539 150.305 41.175 149.609 41.613C148.913 42.051 148.079 42.27 147.107 42.27ZM147.26 41.127C147.878 41.127 148.418 41.016 148.88 40.794C149.342 40.572 149.714 40.269 149.996 39.885C150.278 39.495 150.461 39.057 150.545 38.571C150.617 38.259 150.656 37.917 150.662 37.545C150.668 37.167 150.671 36.885 150.671 36.699L151.175 36.96C150.725 37.02 150.236 37.08 149.708 37.14C149.186 37.2 148.67 37.269 148.16 37.347C147.656 37.425 147.2 37.518 146.792 37.626C146.516 37.704 146.249 37.815 145.991 37.959C145.733 38.097 145.52 38.283 145.352 38.517C145.19 38.751 145.109 39.042 145.109 39.39C145.109 39.672 145.178 39.945 145.316 40.209C145.46 40.473 145.688 40.692 146 40.866C146.318 41.04 146.738 41.127 147.26 41.127Z" fill="#DEE1E6"/>
<path d="M133.502 42.27C132.77 42.27 132.155 42.138 131.657 41.874C131.165 41.61 130.796 41.259 130.55 40.821C130.304 40.383 130.181 39.906 130.181 39.39C130.181 38.862 130.286 38.412 130.496 38.04C130.712 37.662 131.003 37.353 131.369 37.113C131.741 36.873 132.17 36.69 132.656 36.564C133.148 36.444 133.691 36.339 134.285 36.249C134.885 36.153 135.47 36.072 136.04 36.006C136.616 35.934 137.12 35.865 137.552 35.799L137.084 36.087C137.102 35.127 136.916 34.416 136.526 33.954C136.136 33.492 135.458 33.261 134.492 33.261C133.826 33.261 133.262 33.411 132.8 33.711C132.344 34.011 132.023 34.485 131.837 35.133L130.55 34.755C130.772 33.885 131.219 33.21 131.891 32.73C132.563 32.25 133.436 32.01 134.51 32.01C135.398 32.01 136.151 32.178 136.769 32.514C137.393 32.844 137.834 33.324 138.092 33.954C138.212 34.236 138.29 34.551 138.326 34.899C138.362 35.247 138.38 35.601 138.38 35.961V42H137.201V39.561L137.543 39.705C137.213 40.539 136.7 41.175 136.004 41.613C135.308 42.051 134.474 42.27 133.502 42.27ZM133.655 41.127C134.273 41.127 134.813 41.016 135.275 40.794C135.737 40.572 136.109 40.269 136.391 39.885C136.673 39.495 136.856 39.057 136.94 38.571C137.012 38.259 137.051 37.917 137.057 37.545C137.063 37.167 137.066 36.885 137.066 36.699L137.57 36.96C137.12 37.02 136.631 37.08 136.103 37.14C135.581 37.2 135.065 37.269 134.555 37.347C134.051 37.425 133.595 37.518 133.187 37.626C132.911 37.704 132.644 37.815 132.386 37.959C132.128 38.097 131.915 38.283 131.747 38.517C131.585 38.751 131.504 39.042 131.504 39.39C131.504 39.672 131.573 39.945 131.711 40.209C131.855 40.473 132.083 40.692 132.395 40.866C132.713 41.04 133.133 41.127 133.655 41.127Z" fill="#DEE1E6"/>
<path d="M124.48 42.27C123.532 42.27 122.71 42.06 122.014 41.64C121.324 41.22 120.787 40.629 120.403 39.867C120.019 39.105 119.827 38.211 119.827 37.185C119.827 36.123 120.016 35.205 120.394 34.431C120.772 33.657 121.303 33.06 121.987 32.64C122.677 32.22 123.49 32.01 124.426 32.01C125.386 32.01 126.205 32.232 126.883 32.676C127.561 33.114 128.074 33.744 128.422 34.566C128.77 35.388 128.929 36.369 128.899 37.509H127.549V37.041C127.525 35.781 127.252 34.83 126.73 34.188C126.214 33.546 125.458 33.225 124.462 33.225C123.418 33.225 122.617 33.564 122.059 34.242C121.507 34.92 121.231 35.886 121.231 37.14C121.231 38.364 121.507 39.315 122.059 39.993C122.617 40.665 123.406 41.001 124.426 41.001C125.122 41.001 125.728 40.842 126.244 40.524C126.766 40.2 127.177 39.735 127.477 39.129L128.71 39.606C128.326 40.452 127.759 41.109 127.009 41.577C126.265 42.039 125.422 42.27 124.48 42.27ZM120.763 37.509V36.402H128.188V37.509H120.763Z" fill="#DEE1E6"/>
<path d="M109.543 42.27C108.811 42.27 108.196 42.138 107.698 41.874C107.206 41.61 106.837 41.259 106.591 40.821C106.345 40.383 106.222 39.906 106.222 39.39C106.222 38.862 106.327 38.412 106.537 38.04C106.753 37.662 107.044 37.353 107.41 37.113C107.782 36.873 108.211 36.69 108.697 36.564C109.189 36.444 109.732 36.339 110.326 36.249C110.926 36.153 111.511 36.072 112.081 36.006C112.657 35.934 113.161 35.865 113.593 35.799L113.125 36.087C113.143 35.127 112.957 34.416 112.567 33.954C112.177 33.492 111.499 33.261 110.533 33.261C109.867 33.261 109.303 33.411 108.841 33.711C108.385 34.011 108.064 34.485 107.878 35.133L106.591 34.755C106.813 33.885 107.26 33.21 107.932 32.73C108.604 32.25 109.477 32.01 110.551 32.01C111.439 32.01 112.192 32.178 112.81 32.514C113.434 32.844 113.875 33.324 114.133 33.954C114.253 34.236 114.331 34.551 114.367 34.899C114.403 35.247 114.421 35.601 114.421 35.961V42H113.242V39.561L113.584 39.705C113.254 40.539 112.741 41.175 112.045 41.613C111.349 42.051 110.515 42.27 109.543 42.27ZM109.696 41.127C110.314 41.127 110.854 41.016 111.316 40.794C111.778 40.572 112.15 40.269 112.432 39.885C112.714 39.495 112.897 39.057 112.981 38.571C113.053 38.259 113.092 37.917 113.098 37.545C113.104 37.167 113.107 36.885 113.107 36.699L113.611 36.96C113.161 37.02 112.672 37.08 112.144 37.14C111.622 37.2 111.106 37.269 110.596 37.347C110.092 37.425 109.636 37.518 109.228 37.626C108.952 37.704 108.685 37.815 108.427 37.959C108.169 38.097 107.956 38.283 107.788 38.517C107.626 38.751 107.545 39.042 107.545 39.39C107.545 39.672 107.614 39.945 107.752 40.209C107.896 40.473 108.124 40.692 108.436 40.866C108.754 41.04 109.174 41.127 109.696 41.127Z" fill="#DEE1E6"/>
<path d="M102.741 42V28.77H104.064V42H102.741Z" fill="#DEE1E6"/>
<path d="M98.5396 42V28.77H99.8625V42H98.5396Z" fill="#DEE1E6"/>
<path d="M91.3891 42.243C90.8071 42.243 90.2971 42.153 89.8591 41.973C89.4271 41.793 89.0581 41.55 88.7521 41.244C88.4521 40.938 88.2091 40.59 88.0231 40.2C87.8371 39.804 87.7021 39.387 87.6181 38.949C87.5341 38.505 87.4921 38.064 87.4921 37.626V32.28H88.8241V37.239C88.8241 37.773 88.8751 38.268 88.9771 38.724C89.0791 39.18 89.2411 39.579 89.4631 39.921C89.6911 40.257 89.9821 40.518 90.3361 40.704C90.6961 40.89 91.1311 40.983 91.6411 40.983C92.1091 40.983 92.5201 40.902 92.8741 40.74C93.2341 40.578 93.5341 40.347 93.7741 40.047C94.0201 39.741 94.2061 39.372 94.3321 38.94C94.4581 38.502 94.5211 38.01 94.5211 37.464L95.4571 37.671C95.4571 38.667 95.2831 39.504 94.9351 40.182C94.5871 40.86 94.1071 41.373 93.4951 41.721C92.8831 42.069 92.1811 42.243 91.3891 42.243ZM94.6561 42V39.606H94.5211V32.28H95.8441V42H94.6561Z" fill="#DEE1E6"/>
<path d="M84.0046 42V37.041C84.0046 36.501 83.9536 36.006 83.8516 35.556C83.7496 35.1 83.5846 34.704 83.3566 34.368C83.1346 34.026 82.8436 33.762 82.4836 33.576C82.1296 33.39 81.6976 33.297 81.1876 33.297C80.7196 33.297 80.3056 33.378 79.9456 33.54C79.5916 33.702 79.2916 33.936 79.0456 34.242C78.8056 34.542 78.6226 34.908 78.4966 35.34C78.3706 35.772 78.3076 36.264 78.3076 36.816L77.3716 36.609C77.3716 35.613 77.5456 34.776 77.8936 34.098C78.2416 33.42 78.7216 32.907 79.3336 32.559C79.9456 32.211 80.6476 32.037 81.4396 32.037C82.0216 32.037 82.5286 32.127 82.9606 32.307C83.3986 32.487 83.7676 32.73 84.0676 33.036C84.3736 33.342 84.6196 33.693 84.8056 34.089C84.9916 34.479 85.1266 34.896 85.2106 35.34C85.2946 35.778 85.3366 36.216 85.3366 36.654V42H84.0046ZM76.9756 42V32.28H78.1726V34.674H78.3076V42H76.9756Z" fill="#DEE1E6"/>
<path d="M62.8088 42L66.6068 37.086L62.8898 32.28H64.4738L67.3808 36.069L70.2608 32.28H71.8448L68.1278 37.086L71.9348 42H70.3418L67.3808 38.103L64.4018 42H62.8088Z" fill="#DEE1E6"/>
<path d="M57.8241 42.27C56.8761 42.27 56.0541 42.06 55.3581 41.64C54.6681 41.22 54.1311 40.629 53.7471 39.867C53.3631 39.105 53.1711 38.211 53.1711 37.185C53.1711 36.123 53.3601 35.205 53.7381 34.431C54.1161 33.657 54.6471 33.06 55.3311 32.64C56.0211 32.22 56.8341 32.01 57.7701 32.01C58.7301 32.01 59.5491 32.232 60.2271 32.676C60.9051 33.114 61.4181 33.744 61.7661 34.566C62.1141 35.388 62.2731 36.369 62.2431 37.509H60.8931V37.041C60.8691 35.781 60.5961 34.83 60.0741 34.188C59.5581 33.546 58.8021 33.225 57.8061 33.225C56.7621 33.225 55.9611 33.564 55.4031 34.242C54.8511 34.92 54.5751 35.886 54.5751 37.14C54.5751 38.364 54.8511 39.315 55.4031 39.993C55.9611 40.665 56.7501 41.001 57.7701 41.001C58.4661 41.001 59.0721 40.842 59.5881 40.524C60.1101 40.2 60.5211 39.735 60.8211 39.129L62.0541 39.606C61.6701 40.452 61.1031 41.109 60.3531 41.577C59.6091 42.039 58.7661 42.27 57.8241 42.27ZM54.1071 37.509V36.402H61.5321V37.509H54.1071Z" fill="#DEE1E6"/>
<path d="M46.4418 42L46.4508 35.619C46.4508 34.869 46.2408 34.281 45.8208 33.855C45.4068 33.423 44.8788 33.207 44.2368 33.207C43.8708 33.207 43.5138 33.291 43.1658 33.459C42.8178 33.627 42.5298 33.897 42.3018 34.269C42.0798 34.641 41.9688 35.127 41.9688 35.727L41.1858 35.502C41.1678 34.806 41.3028 34.197 41.5908 33.675C41.8848 33.153 42.2868 32.748 42.7968 32.46C43.3128 32.166 43.8948 32.019 44.5428 32.019C45.5208 32.019 46.3038 32.322 46.8918 32.928C47.4798 33.528 47.7738 34.341 47.7738 35.367L47.7648 42H46.4418ZM34.8408 42V32.28H36.0288V34.674H36.1728V42H34.8408ZM40.6548 42L40.6638 35.709C40.6638 34.935 40.4568 34.326 40.0428 33.882C39.6348 33.432 39.0948 33.207 38.4228 33.207C37.7508 33.207 37.2078 33.438 36.7938 33.9C36.3798 34.356 36.1728 34.965 36.1728 35.727L35.3808 35.295C35.3808 34.671 35.5278 34.113 35.8218 33.621C36.1158 33.123 36.5178 32.733 37.0278 32.451C37.5378 32.163 38.1168 32.019 38.7648 32.019C39.3828 32.019 39.9318 32.151 40.4118 32.415C40.8978 32.679 41.2788 33.063 41.5548 33.567C41.8308 34.071 41.9688 34.683 41.9688 35.403L41.9598 42H40.6548Z" fill="#DEE1E6"/>
<path d="M27.8793 42.243C27.2973 42.243 26.7873 42.153 26.3493 41.973C25.9173 41.793 25.5483 41.55 25.2423 41.244C24.9423 40.938 24.6993 40.59 24.5133 40.2C24.3273 39.804 24.1923 39.387 24.1083 38.949C24.0243 38.505 23.9823 38.064 23.9823 37.626V32.28H25.3143V37.239C25.3143 37.773 25.3653 38.268 25.4673 38.724C25.5693 39.18 25.7313 39.579 25.9533 39.921C26.1813 40.257 26.4723 40.518 26.8263 40.704C27.1863 40.89 27.6213 40.983 28.1313 40.983C28.5993 40.983 29.0103 40.902 29.3643 40.74C29.7243 40.578 30.0243 40.347 30.2643 40.047C30.5103 39.741 30.6963 39.372 30.8223 38.94C30.9483 38.502 31.0113 38.01 31.0113 37.464L31.9473 37.671C31.9473 38.667 31.7733 39.504 31.4253 40.182C31.0773 40.86 30.5973 41.373 29.9853 41.721C29.3733 42.069 28.6713 42.243 27.8793 42.243ZM31.1463 42L31.1463 39.606H31.0113V32.28H32.3343V42H31.1463Z" fill="#DEE1E6"/>
<path d="M18.3323 42.261C17.1923 42.261 16.2533 42.015 15.5153 41.523C14.7833 41.031 14.3333 40.347 14.1653 39.471L15.5153 39.246C15.6593 39.798 15.9863 40.239 16.4963 40.569C17.0123 40.893 17.6483 41.055 18.4043 41.055C19.1423 41.055 19.7243 40.902 20.1503 40.596C20.5763 40.284 20.7893 39.861 20.7893 39.327C20.7893 39.027 20.7203 38.784 20.5823 38.598C20.4503 38.406 20.1773 38.229 19.7633 38.067C19.3493 37.905 18.7313 37.713 17.9093 37.491C17.0273 37.251 16.3373 37.011 15.8393 36.771C15.3413 36.531 14.9873 36.255 14.7773 35.943C14.5673 35.625 14.4623 35.238 14.4623 34.782C14.4623 34.23 14.6183 33.747 14.9303 33.333C15.2423 32.913 15.6743 32.589 16.2263 32.361C16.7783 32.127 17.4203 32.01 18.1523 32.01C18.8843 32.01 19.5383 32.13 20.1143 32.37C20.6963 32.604 21.1643 32.934 21.5183 33.36C21.8723 33.786 22.0823 34.281 22.1483 34.845L20.7983 35.088C20.7083 34.518 20.4233 34.068 19.9433 33.738C19.4693 33.402 18.8663 33.228 18.1343 33.216C17.4443 33.198 16.8833 33.33 16.4513 33.612C16.0193 33.888 15.8033 34.257 15.8033 34.719C15.8033 34.977 15.8813 35.199 16.0373 35.385C16.1933 35.565 16.4753 35.736 16.8833 35.898C17.2973 36.06 17.8853 36.237 18.6473 36.429C19.5413 36.657 20.2433 36.897 20.7533 37.149C21.2633 37.401 21.6263 37.698 21.8423 38.04C22.0583 38.382 22.1663 38.805 22.1663 39.309C22.1663 40.227 21.8243 40.95 21.1403 41.478C20.4623 42 19.5263 42.261 18.3323 42.261Z" fill="#DEE1E6"/>
<path d="M8.50584 42.27C7.61184 42.27 6.85584 42.045 6.23784 41.595C5.61984 41.139 5.15184 40.524 4.83384 39.75C4.51584 38.97 4.35684 38.097 4.35684 37.131C4.35684 36.147 4.51584 35.271 4.83384 34.503C5.15784 33.729 5.63184 33.12 6.25584 32.676C6.87984 32.232 7.64784 32.01 8.55984 32.01C9.44784 32.01 10.2098 32.235 10.8458 32.685C11.4818 33.135 11.9678 33.747 12.3038 34.521C12.6458 35.295 12.8168 36.165 12.8168 37.131C12.8168 38.103 12.6458 38.976 12.3038 39.75C11.9618 40.524 11.4698 41.139 10.8278 41.595C10.1858 42.045 9.41184 42.27 8.50584 42.27ZM4.13184 46.32L4.13184 32.28H5.31984L5.31984 39.597H5.46384L5.46384 46.32H4.13184ZM8.37084 41.037C9.04884 41.037 9.61284 40.866 10.0628 40.524C10.5128 40.182 10.8488 39.717 11.0708 39.129C11.2988 38.535 11.4128 37.869 11.4128 37.131C11.4128 36.399 11.3018 35.739 11.0798 35.151C10.8578 34.563 10.5188 34.098 10.0628 33.756C9.61284 33.414 9.03984 33.243 8.34384 33.243C7.66584 33.243 7.10184 33.408 6.65184 33.738C6.20784 34.068 5.87484 34.527 5.65284 35.115C5.43084 35.697 5.31984 36.369 5.31984 37.131C5.31984 37.881 5.43084 38.553 5.65284 39.147C5.87484 39.735 6.21084 40.197 6.66084 40.533C7.11084 40.869 7.68084 41.037 8.37084 41.037Z" fill="#DEE1E6"/>
<path d="M0.119629 30.435L0.119629 28.95H1.44263L1.44263 30.435H0.119629ZM0.119629 42L0.119629 32.28H1.44263L1.44263 42H0.119629Z" fill="#DEE1E6"/>
<path d="M492.259 14V4.28004H493.447V6.62004L493.213 6.31404C493.321 6.02604 493.462 5.76204 493.636 5.52204C493.81 5.27604 493.999 5.07504 494.203 4.91904C494.455 4.69704 494.749 4.52904 495.085 4.41504C495.421 4.29504 495.76 4.22604 496.102 4.20804C496.444 4.18404 496.756 4.20804 497.038 4.28004V5.52204C496.684 5.43204 496.297 5.41104 495.877 5.45904C495.457 5.50704 495.07 5.67504 494.716 5.96304C494.392 6.21504 494.149 6.51804 493.987 6.87204C493.825 7.22004 493.717 7.59204 493.663 7.98804C493.609 8.37804 493.582 8.76504 493.582 9.14904V14H492.259Z" fill="#DEE1E6"/>
<path d="M485.666 14.27C484.7 14.27 483.875 14.051 483.191 13.613C482.507 13.175 481.982 12.569 481.616 11.795C481.25 11.021 481.067 10.133 481.067 9.13101C481.067 8.11101 481.253 7.21701 481.625 6.44901C481.997 5.68101 482.525 5.08401 483.209 4.65801C483.899 4.22601 484.718 4.01001 485.666 4.01001C486.638 4.01001 487.466 4.22901 488.15 4.66701C488.84 5.09901 489.365 5.70201 489.725 6.47601C490.091 7.24401 490.274 8.12901 490.274 9.13101C490.274 10.151 490.091 11.048 489.725 11.822C489.359 12.59 488.831 13.19 488.141 13.622C487.451 14.054 486.626 14.27 485.666 14.27ZM485.666 13.001C486.746 13.001 487.55 12.644 488.078 11.93C488.606 11.21 488.87 10.277 488.87 9.13101C488.87 7.95501 488.603 7.01901 488.069 6.32301C487.541 5.62701 486.74 5.27901 485.666 5.27901C484.94 5.27901 484.34 5.44401 483.866 5.77401C483.398 6.09801 483.047 6.55101 482.813 7.13301C482.585 7.70901 482.471 8.37501 482.471 9.13101C482.471 10.301 482.741 11.24 483.281 11.948C483.821 12.65 484.616 13.001 485.666 13.001Z" fill="#DEE1E6"/>
<path d="M475.319 14.27C474.425 14.27 473.669 14.045 473.051 13.595C472.433 13.139 471.965 12.524 471.647 11.75C471.329 10.97 471.17 10.097 471.17 9.13101C471.17 8.14701 471.329 7.27101 471.647 6.50301C471.971 5.72901 472.445 5.12001 473.069 4.67601C473.693 4.23201 474.461 4.01001 475.373 4.01001C476.261 4.01001 477.023 4.23501 477.659 4.68501C478.295 5.13501 478.781 5.74701 479.117 6.52101C479.459 7.29501 479.63 8.16501 479.63 9.13101C479.63 10.103 479.459 10.976 479.117 11.75C478.775 12.524 478.283 13.139 477.641 13.595C476.999 14.045 476.225 14.27 475.319 14.27ZM470.945 18.32V4.28001H472.133V11.597H472.277V18.32H470.945ZM475.184 13.037C475.862 13.037 476.426 12.866 476.876 12.524C477.326 12.182 477.662 11.717 477.884 11.129C478.112 10.535 478.226 9.86901 478.226 9.13101C478.226 8.39901 478.115 7.73901 477.893 7.15101C477.671 6.56301 477.332 6.09801 476.876 5.75601C476.426 5.41401 475.853 5.24301 475.157 5.24301C474.479 5.24301 473.915 5.40801 473.465 5.73801C473.021 6.06801 472.688 6.52701 472.466 7.11501C472.244 7.69701 472.133 8.36901 472.133 9.13101C472.133 9.88101 472.244 10.553 472.466 11.147C472.688 11.735 473.024 12.197 473.474 12.533C473.924 12.869 474.494 13.037 475.184 13.037Z" fill="#DEE1E6"/>
<path d="M467.288 14L467.297 7.61901C467.297 6.86901 467.087 6.28101 466.667 5.85501C466.253 5.42301 465.725 5.20701 465.083 5.20701C464.717 5.20701 464.36 5.29101 464.012 5.45901C463.664 5.62701 463.376 5.89701 463.148 6.26901C462.926 6.64101 462.815 7.12701 462.815 7.72701L462.033 7.50201C462.015 6.80601 462.149 6.19701 462.438 5.67501C462.731 5.15301 463.133 4.74801 463.643 4.46001C464.159 4.16601 464.741 4.01901 465.389 4.01901C466.367 4.01901 467.15 4.32201 467.738 4.92801C468.326 5.52801 468.62 6.34101 468.62 7.36701L468.611 14H467.288ZM455.688 14V4.28001H456.875V6.67401H457.02V14H455.688ZM461.501 14L461.51 7.70901C461.51 6.93501 461.303 6.32601 460.889 5.88201C460.481 5.43201 459.942 5.20701 459.27 5.20701C458.598 5.20701 458.055 5.43801 457.641 5.90001C457.227 6.35601 457.02 6.96501 457.02 7.72701L456.227 7.29501C456.227 6.67101 456.374 6.11301 456.668 5.62101C456.962 5.12301 457.364 4.73301 457.874 4.45101C458.384 4.16301 458.963 4.01901 459.611 4.01901C460.229 4.01901 460.778 4.15101 461.258 4.41501C461.744 4.67901 462.125 5.06301 462.401 5.56701C462.677 6.07101 462.815 6.68301 462.815 7.40301L462.806 14H461.501Z" fill="#DEE1E6"/>
<path d="M449.544 14.27C448.596 14.27 447.774 14.06 447.078 13.64C446.388 13.22 445.851 12.629 445.467 11.867C445.083 11.105 444.891 10.211 444.891 9.18501C444.891 8.12301 445.08 7.20501 445.458 6.43101C445.836 5.65701 446.367 5.06001 447.051 4.64001C447.741 4.22001 448.554 4.01001 449.49 4.01001C450.45 4.01001 451.269 4.23201 451.947 4.67601C452.625 5.11401 453.138 5.74401 453.486 6.56601C453.834 7.38801 453.993 8.36901 453.963 9.50901L452.613 9.50901V9.04101C452.589 7.78101 452.316 6.83001 451.794 6.18801C451.278 5.54601 450.522 5.22501 449.526 5.22501C448.482 5.22501 447.681 5.56401 447.123 6.24201C446.571 6.92001 446.295 7.88601 446.295 9.14001C446.295 10.364 446.571 11.315 447.123 11.993C447.681 12.665 448.47 13.001 449.49 13.001C450.186 13.001 450.792 12.842 451.308 12.524C451.83 12.2 452.241 11.735 452.541 11.129L453.774 11.606C453.39 12.452 452.823 13.109 452.073 13.577C451.329 14.039 450.486 14.27 449.544 14.27ZM445.827 9.50901V8.40201L453.252 8.40201V9.50901L445.827 9.50901Z" fill="#DEE1E6"/>
<path d="M443.867 14C443.321 14.114 442.781 14.159 442.247 14.135C441.719 14.111 441.245 13.997 440.825 13.793C440.411 13.589 440.096 13.271 439.88 12.839C439.706 12.479 439.61 12.116 439.592 11.75C439.58 11.378 439.574 10.955 439.574 10.481V1.58002L440.888 1.58002V10.427C440.888 10.835 440.891 11.177 440.897 11.453C440.909 11.723 440.972 11.963 441.086 12.173C441.302 12.575 441.644 12.815 442.112 12.893C442.586 12.971 443.171 12.953 443.867 12.839V14ZM437.495 5.41402V4.28002L443.867 4.28002V5.41402L437.495 5.41402Z" fill="#DEE1E6"/>
<path d="M428.486 14V4.28004H429.674V6.62004L429.44 6.31404C429.548 6.02604 429.689 5.76204 429.863 5.52204C430.037 5.27604 430.226 5.07504 430.43 4.91904C430.682 4.69704 430.976 4.52904 431.312 4.41504C431.648 4.29504 431.987 4.22604 432.329 4.20804C432.671 4.18404 432.983 4.20804 433.265 4.28004V5.52204C432.911 5.43204 432.524 5.41104 432.104 5.45904C431.684 5.50704 431.297 5.67504 430.943 5.96304C430.619 6.21504 430.376 6.51804 430.214 6.87204C430.052 7.22004 429.944 7.59204 429.89 7.98804C429.836 8.37804 429.809 8.76504 429.809 9.14904V14H428.486Z" fill="#DEE1E6"/>
<path d="M421.892 14.27C420.926 14.27 420.101 14.051 419.417 13.613C418.733 13.175 418.208 12.569 417.842 11.795C417.476 11.021 417.293 10.133 417.293 9.13101C417.293 8.11101 417.479 7.21701 417.851 6.44901C418.223 5.68101 418.751 5.08401 419.435 4.65801C420.125 4.22601 420.944 4.01001 421.892 4.01001C422.864 4.01001 423.692 4.22901 424.376 4.66701C425.066 5.09901 425.591 5.70201 425.951 6.47601C426.317 7.24401 426.5 8.12901 426.5 9.13101C426.5 10.151 426.317 11.048 425.951 11.822C425.585 12.59 425.057 13.19 424.367 13.622C423.677 14.054 422.852 14.27 421.892 14.27ZM421.892 13.001C422.972 13.001 423.776 12.644 424.304 11.93C424.832 11.21 425.096 10.277 425.096 9.13101C425.096 7.95501 424.829 7.01901 424.295 6.32301C423.767 5.62701 422.966 5.27901 421.892 5.27901C421.166 5.27901 420.566 5.44401 420.092 5.77401C419.624 6.09801 419.273 6.55101 419.039 7.13301C418.811 7.70901 418.697 8.37501 418.697 9.13101C418.697 10.301 418.967 11.24 419.507 11.948C420.047 12.65 420.842 13.001 421.892 13.001Z" fill="#DEE1E6"/>
<path d="M411.546 14.27C410.652 14.27 409.896 14.045 409.278 13.595C408.66 13.139 408.192 12.524 407.874 11.75C407.556 10.97 407.397 10.097 407.397 9.13101C407.397 8.14701 407.556 7.27101 407.874 6.50301C408.198 5.72901 408.672 5.12001 409.296 4.67601C409.92 4.23201 410.688 4.01001 411.6 4.01001C412.488 4.01001 413.25 4.23501 413.886 4.68501C414.522 5.13501 415.008 5.74701 415.344 6.52101C415.686 7.29501 415.857 8.16501 415.857 9.13101C415.857 10.103 415.686 10.976 415.344 11.75C415.002 12.524 414.51 13.139 413.868 13.595C413.226 14.045 412.452 14.27 411.546 14.27ZM407.172 18.32V4.28001H408.36V11.597H408.504V18.32H407.172ZM411.411 13.037C412.089 13.037 412.653 12.866 413.103 12.524C413.553 12.182 413.889 11.717 414.111 11.129C414.339 10.535 414.453 9.86901 414.453 9.13101C414.453 8.39901 414.342 7.73901 414.12 7.15101C413.898 6.56301 413.559 6.09801 413.103 5.75601C412.653 5.41401 412.08 5.24301 411.384 5.24301C410.706 5.24301 410.142 5.40801 409.692 5.73801C409.248 6.06801 408.915 6.52701 408.693 7.11501C408.471 7.69701 408.36 8.36901 408.36 9.13101C408.36 9.88101 408.471 10.553 408.693 11.147C408.915 11.735 409.251 12.197 409.701 12.533C410.151 12.869 410.721 13.037 411.411 13.037Z" fill="#DEE1E6"/>
<path d="M403.515 14L403.524 7.61901C403.524 6.86901 403.314 6.28101 402.894 5.85501C402.48 5.42301 401.952 5.20701 401.31 5.20701C400.944 5.20701 400.587 5.29101 400.239 5.45901C399.891 5.62701 399.603 5.89701 399.375 6.26901C399.153 6.64101 399.042 7.12701 399.042 7.72701L398.259 7.50201C398.241 6.80601 398.376 6.19701 398.664 5.67501C398.958 5.15301 399.36 4.74801 399.87 4.46001C400.386 4.16601 400.968 4.01901 401.616 4.01901C402.594 4.01901 403.377 4.32201 403.965 4.92801C404.553 5.52801 404.847 6.34101 404.847 7.36701L404.838 14H403.515ZM391.914 14V4.28001H393.102V6.67401H393.246V14H391.914ZM397.728 14L397.737 7.70901C397.737 6.93501 397.53 6.32601 397.116 5.88201C396.708 5.43201 396.168 5.20701 395.496 5.20701C394.824 5.20701 394.281 5.43801 393.867 5.90001C393.453 6.35601 393.246 6.96501 393.246 7.72701L392.454 7.29501C392.454 6.67101 392.601 6.11301 392.895 5.62101C393.189 5.12301 393.591 4.73301 394.101 4.45101C394.611 4.16301 395.19 4.01901 395.838 4.01901C396.456 4.01901 397.005 4.15101 397.485 4.41501C397.971 4.67901 398.352 5.06301 398.628 5.56701C398.904 6.07101 399.042 6.68301 399.042 7.40301L399.033 14H397.728Z" fill="#DEE1E6"/>
<path d="M385.77 14.27C384.822 14.27 384 14.06 383.304 13.64C382.614 13.22 382.077 12.629 381.693 11.867C381.309 11.105 381.117 10.211 381.117 9.18501C381.117 8.12301 381.306 7.20501 381.684 6.43101C382.062 5.65701 382.593 5.06001 383.277 4.64001C383.967 4.22001 384.78 4.01001 385.716 4.01001C386.676 4.01001 387.495 4.23201 388.173 4.67601C388.851 5.11401 389.364 5.74401 389.712 6.56601C390.06 7.38801 390.219 8.36901 390.189 9.50901L388.839 9.50901V9.04101C388.815 7.78101 388.542 6.83001 388.02 6.18801C387.504 5.54601 386.748 5.22501 385.752 5.22501C384.708 5.22501 383.907 5.56401 383.349 6.24201C382.797 6.92001 382.521 7.88601 382.521 9.14001C382.521 10.364 382.797 11.315 383.349 11.993C383.907 12.665 384.696 13.001 385.716 13.001C386.412 13.001 387.018 12.842 387.534 12.524C388.056 12.2 388.467 11.735 388.767 11.129L390 11.606C389.616 12.452 389.049 13.109 388.299 13.577C387.555 14.039 386.712 14.27 385.77 14.27ZM382.053 9.50901V8.40201L389.478 8.40201V9.50901L382.053 9.50901Z" fill="#DEE1E6"/>
<path d="M380.094 14C379.548 14.114 379.008 14.159 378.474 14.135C377.946 14.111 377.472 13.997 377.052 13.793C376.638 13.589 376.323 13.271 376.107 12.839C375.933 12.479 375.837 12.116 375.819 11.75C375.807 11.378 375.801 10.955 375.801 10.481V1.58002L377.115 1.58002V10.427C377.115 10.835 377.118 11.177 377.124 11.453C377.136 11.723 377.199 11.963 377.313 12.173C377.529 12.575 377.871 12.815 378.339 12.893C378.813 12.971 379.398 12.953 380.094 12.839V14ZM373.722 5.41402V4.28002L380.094 4.28002V5.41402L373.722 5.41402Z" fill="#DEE1E6"/>
<path d="M367.531 14V9.04102C367.531 8.50102 367.48 8.00602 367.378 7.55602C367.276 7.10002 367.111 6.70402 366.883 6.36802C366.661 6.02602 366.37 5.76202 366.01 5.57602C365.656 5.39002 365.224 5.29702 364.714 5.29702C364.246 5.29702 363.832 5.37802 363.472 5.54002C363.118 5.70202 362.818 5.93602 362.572 6.24202C362.332 6.54202 362.149 6.90802 362.023 7.34002C361.897 7.77202 361.834 8.26402 361.834 8.81602L360.898 8.60902C360.898 7.61302 361.072 6.77602 361.42 6.09802C361.768 5.42002 362.248 4.90702 362.86 4.55902C363.472 4.21102 364.174 4.03702 364.966 4.03702C365.548 4.03702 366.055 4.12702 366.487 4.30702C366.925 4.48702 367.294 4.73002 367.594 5.03602C367.9 5.34202 368.146 5.69302 368.332 6.08902C368.518 6.47902 368.653 6.89602 368.737 7.34002C368.821 7.77802 368.863 8.21602 368.863 8.65402V14H367.531ZM360.502 14V4.28002H361.699V6.67402H361.834V14H360.502Z" fill="#DEE1E6"/>
<path d="M353.918 14.27C352.952 14.27 352.127 14.051 351.443 13.613C350.759 13.175 350.234 12.569 349.868 11.795C349.502 11.021 349.319 10.133 349.319 9.13101C349.319 8.11101 349.505 7.21701 349.877 6.44901C350.249 5.68101 350.777 5.08401 351.461 4.65801C352.151 4.22601 352.97 4.01001 353.918 4.01001C354.89 4.01001 355.718 4.22901 356.402 4.66701C357.092 5.09901 357.617 5.70201 357.977 6.47601C358.343 7.24401 358.526 8.12901 358.526 9.13101C358.526 10.151 358.343 11.048 357.977 11.822C357.611 12.59 357.083 13.19 356.393 13.622C355.703 14.054 354.878 14.27 353.918 14.27ZM353.918 13.001C354.998 13.001 355.802 12.644 356.33 11.93C356.858 11.21 357.122 10.277 357.122 9.13101C357.122 7.95501 356.855 7.01901 356.321 6.32301C355.793 5.62701 354.992 5.27901 353.918 5.27901C353.192 5.27901 352.592 5.44401 352.118 5.77401C351.65 6.09801 351.299 6.55101 351.065 7.13301C350.837 7.70901 350.723 8.37501 350.723 9.13101C350.723 10.301 350.993 11.24 351.533 11.948C352.073 12.65 352.868 13.001 353.918 13.001Z" fill="#DEE1E6"/>
<path d="M346.244 14V9.04102C346.244 8.50102 346.193 8.00602 346.091 7.55602C345.989 7.10002 345.824 6.70402 345.596 6.36802C345.374 6.02602 345.083 5.76202 344.723 5.57602C344.369 5.39002 343.937 5.29702 343.427 5.29702C342.959 5.29702 342.545 5.37802 342.185 5.54002C341.831 5.70202 341.531 5.93602 341.285 6.24202C341.045 6.54202 340.862 6.90802 340.736 7.34002C340.61 7.77202 340.547 8.26402 340.547 8.81602L339.611 8.60902C339.611 7.61302 339.785 6.77602 340.133 6.09802C340.481 5.42002 340.961 4.90702 341.573 4.55902C342.185 4.21102 342.887 4.03702 343.679 4.03702C344.261 4.03702 344.768 4.12702 345.2 4.30702C345.638 4.48702 346.007 4.73002 346.307 5.03602C346.613 5.34202 346.859 5.69302 347.045 6.08902C347.231 6.47902 347.366 6.89602 347.45 7.34002C347.534 7.77802 347.576 8.21602 347.576 8.65402V14H346.244ZM339.215 14V4.28002H340.412V6.67402H340.547V14H339.215Z" fill="#DEE1E6"/>
<path d="M331.954 14L331.964 7.61901C331.964 6.86901 331.753 6.28101 331.333 5.85501C330.919 5.42301 330.392 5.20701 329.75 5.20701C329.384 5.20701 329.026 5.29101 328.678 5.45901C328.33 5.62701 328.043 5.89701 327.815 6.26901C327.593 6.64101 327.482 7.12701 327.482 7.72701L326.699 7.50201C326.681 6.80601 326.816 6.19701 327.104 5.67501C327.398 5.15301 327.8 4.74801 328.31 4.46001C328.826 4.16601 329.408 4.01901 330.056 4.01901C331.034 4.01901 331.817 4.32201 332.405 4.92801C332.993 5.52801 333.286 6.34101 333.286 7.36701L333.277 14H331.954ZM320.354 14V4.28001H321.542V6.67401H321.686V14H320.354ZM326.168 14L326.177 7.70901C326.177 6.93501 325.97 6.32601 325.556 5.88201C325.148 5.43201 324.608 5.20701 323.936 5.20701C323.264 5.20701 322.721 5.43801 322.307 5.90001C321.893 6.35601 321.686 6.96501 321.686 7.72701L320.893 7.29501C320.893 6.67101 321.041 6.11301 321.335 5.62101C321.629 5.12301 322.03 4.73301 322.54 4.45101C323.05 4.16301 323.629 4.01901 324.277 4.01901C324.895 4.01901 325.444 4.15101 325.924 4.41501C326.41 4.67901 326.792 5.06301 327.068 5.56701C327.344 6.07101 327.482 6.68301 327.482 7.40301L327.473 14H326.168Z" fill="#DEE1E6"/>
<path d="M316.341 2.43501V0.950012L317.664 0.950012V2.43501H316.341ZM316.341 14V4.28001H317.664V14H316.341Z" fill="#DEE1E6"/>
<path d="M312.494 14V9.04102C312.494 8.50102 312.443 8.00602 312.341 7.55602C312.239 7.10002 312.074 6.70402 311.846 6.36802C311.624 6.02602 311.333 5.76202 310.973 5.57602C310.619 5.39002 310.187 5.29702 309.677 5.29702C309.209 5.29702 308.795 5.37802 308.435 5.54002C308.081 5.70202 307.781 5.93602 307.535 6.24202C307.295 6.54202 307.112 6.90802 306.986 7.34002C306.86 7.77202 306.797 8.26402 306.797 8.81602L305.861 8.60902C305.861 7.61302 306.035 6.77602 306.383 6.09802C306.731 5.42002 307.211 4.90702 307.823 4.55902C308.435 4.21102 309.137 4.03702 309.929 4.03702C310.511 4.03702 311.018 4.12702 311.45 4.30702C311.888 4.48702 312.257 4.73002 312.557 5.03602C312.863 5.34202 313.109 5.69302 313.295 6.08902C313.481 6.47902 313.616 6.89602 313.7 7.34002C313.784 7.77802 313.826 8.21602 313.826 8.65402V14H312.494ZM305.465 14V4.28002H306.662V6.67402H306.797V14H305.465Z" fill="#DEE1E6"/>
<path d="M299.321 14.27C298.373 14.27 297.551 14.06 296.855 13.64C296.165 13.22 295.628 12.629 295.244 11.867C294.86 11.105 294.668 10.211 294.668 9.18501C294.668 8.12301 294.857 7.20501 295.235 6.43101C295.613 5.65701 296.144 5.06001 296.828 4.64001C297.518 4.22001 298.331 4.01001 299.267 4.01001C300.227 4.01001 301.046 4.23201 301.724 4.67601C302.402 5.11401 302.915 5.74401 303.263 6.56601C303.611 7.38801 303.77 8.36901 303.74 9.50901L302.39 9.50901V9.04101C302.366 7.78101 302.093 6.83001 301.571 6.18801C301.055 5.54601 300.299 5.22501 299.303 5.22501C298.259 5.22501 297.458 5.56401 296.9 6.24201C296.348 6.92001 296.072 7.88601 296.072 9.14001C296.072 10.364 296.348 11.315 296.9 11.993C297.458 12.665 298.247 13.001 299.267 13.001C299.963 13.001 300.569 12.842 301.085 12.524C301.607 12.2 302.018 11.735 302.318 11.129L303.551 11.606C303.167 12.452 302.6 13.109 301.85 13.577C301.106 14.039 300.263 14.27 299.321 14.27ZM295.604 9.50901V8.40201L303.029 8.40201V9.50901L295.604 9.50901Z" fill="#DEE1E6"/>
<path d="M289.69 14C289.144 14.114 288.604 14.159 288.07 14.135C287.542 14.111 287.068 13.997 286.648 13.793C286.234 13.589 285.919 13.271 285.703 12.839C285.529 12.479 285.433 12.116 285.415 11.75C285.403 11.378 285.397 10.955 285.397 10.481V1.58002L286.711 1.58002V10.427C286.711 10.835 286.714 11.177 286.72 11.453C286.732 11.723 286.795 11.963 286.909 12.173C287.125 12.575 287.467 12.815 287.935 12.893C288.409 12.971 288.994 12.953 289.69 12.839V14ZM283.318 5.41402V4.28002L289.69 4.28002V5.41402L283.318 5.41402Z" fill="#DEE1E6"/>
<path d="M280.73 14V9.04102C280.73 8.50102 280.679 8.00602 280.577 7.55602C280.475 7.10002 280.31 6.70402 280.082 6.36802C279.86 6.02602 279.569 5.76202 279.209 5.57602C278.855 5.39002 278.423 5.29702 277.913 5.29702C277.445 5.29702 277.031 5.37802 276.671 5.54002C276.317 5.70202 276.017 5.93602 275.771 6.24202C275.531 6.54202 275.348 6.90802 275.222 7.34002C275.096 7.77202 275.033 8.26402 275.033 8.81602L274.097 8.60902C274.097 7.61302 274.271 6.77602 274.619 6.09802C274.967 5.42002 275.447 4.90702 276.059 4.55902C276.671 4.21102 277.373 4.03702 278.165 4.03702C278.747 4.03702 279.254 4.12702 279.686 4.30702C280.124 4.48702 280.493 4.73002 280.793 5.03602C281.099 5.34202 281.345 5.69302 281.531 6.08902C281.717 6.47902 281.852 6.89602 281.936 7.34002C282.02 7.77802 282.062 8.21602 282.062 8.65402V14H280.73ZM273.701 14V4.28002H274.898V6.67402H275.033V14H273.701Z" fill="#DEE1E6"/>
<path d="M267.558 14.27C266.61 14.27 265.788 14.06 265.092 13.64C264.402 13.22 263.865 12.629 263.481 11.867C263.097 11.105 262.905 10.211 262.905 9.18501C262.905 8.12301 263.094 7.20501 263.472 6.43101C263.85 5.65701 264.381 5.06001 265.065 4.64001C265.755 4.22001 266.568 4.01001 267.504 4.01001C268.464 4.01001 269.283 4.23201 269.961 4.67601C270.639 5.11401 271.152 5.74401 271.5 6.56601C271.848 7.38801 272.007 8.36901 271.977 9.50901L270.627 9.50901V9.04101C270.603 7.78101 270.33 6.83001 269.808 6.18801C269.292 5.54601 268.536 5.22501 267.54 5.22501C266.496 5.22501 265.695 5.56401 265.137 6.24201C264.585 6.92001 264.309 7.88601 264.309 9.14001C264.309 10.364 264.585 11.315 265.137 11.993C265.695 12.665 266.484 13.001 267.504 13.001C268.2 13.001 268.806 12.842 269.322 12.524C269.844 12.2 270.255 11.735 270.555 11.129L271.788 11.606C271.404 12.452 270.837 13.109 270.087 13.577C269.343 14.039 268.5 14.27 267.558 14.27ZM263.841 9.50901V8.40201L271.266 8.40201V9.50901L263.841 9.50901Z" fill="#DEE1E6"/>
<path d="M256.546 14.27C255.64 14.27 254.866 14.045 254.224 13.595C253.582 13.139 253.09 12.524 252.748 11.75C252.406 10.976 252.235 10.103 252.235 9.13101C252.235 8.16501 252.403 7.29501 252.739 6.52101C253.081 5.74701 253.57 5.13501 254.206 4.68501C254.842 4.23501 255.604 4.01001 256.492 4.01001C257.404 4.01001 258.172 4.23201 258.796 4.67601C259.42 5.12001 259.891 5.72901 260.209 6.50301C260.533 7.27101 260.695 8.14701 260.695 9.13101C260.695 10.097 260.536 10.97 260.218 11.75C259.9 12.524 259.432 13.139 258.814 13.595C258.196 14.045 257.44 14.27 256.546 14.27ZM256.681 13.037C257.371 13.037 257.941 12.869 258.391 12.533C258.841 12.197 259.177 11.735 259.399 11.147C259.621 10.553 259.732 9.88101 259.732 9.13101C259.732 8.36901 259.621 7.69701 259.399 7.11501C259.177 6.52701 258.841 6.06801 258.391 5.73801C257.947 5.40801 257.386 5.24301 256.708 5.24301C256.012 5.24301 255.436 5.41401 254.98 5.75601C254.524 6.09801 254.185 6.56301 253.963 7.15101C253.747 7.73901 253.639 8.39901 253.639 9.13101C253.639 9.86901 253.75 10.535 253.972 11.129C254.2 11.717 254.539 12.182 254.989 12.524C255.439 12.866 256.003 13.037 256.681 13.037ZM259.732 14V6.68301H259.588V1.04001L260.92 1.04001V14H259.732Z" fill="#DEE1E6"/>
<path d="M248.753 2.43501V0.950012L250.076 0.950012V2.43501H248.753ZM248.753 14V4.28001H250.076V14H248.753Z" fill="#DEE1E6"/>
<path d="M241.98 14.27C241.014 14.27 240.189 14.051 239.505 13.613C238.821 13.175 238.296 12.569 237.93 11.795C237.564 11.021 237.381 10.133 237.381 9.13101C237.381 8.11101 237.567 7.21701 237.939 6.44901C238.311 5.68101 238.839 5.08401 239.523 4.65801C240.213 4.22601 241.032 4.01001 241.98 4.01001C242.952 4.01001 243.78 4.22901 244.464 4.66701C245.154 5.09901 245.679 5.70201 246.039 6.47601C246.405 7.24401 246.588 8.12901 246.588 9.13101C246.588 10.151 246.405 11.048 246.039 11.822C245.673 12.59 245.145 13.19 244.455 13.622C243.765 14.054 242.94 14.27 241.98 14.27ZM241.98 13.001C243.06 13.001 243.864 12.644 244.392 11.93C244.92 11.21 245.184 10.277 245.184 9.13101C245.184 7.95501 244.917 7.01901 244.383 6.32301C243.855 5.62701 243.054 5.27901 241.98 5.27901C241.254 5.27901 240.654 5.44401 240.18 5.77401C239.712 6.09801 239.361 6.55101 239.127 7.13301C238.899 7.70901 238.785 8.37501 238.785 9.13101C238.785 10.301 239.055 11.24 239.595 11.948C240.135 12.65 240.93 13.001 241.98 13.001Z" fill="#DEE1E6"/>
<path d="M231.611 14V4.28004H232.799V6.62004L232.565 6.31404C232.673 6.02604 232.814 5.76204 232.988 5.52204C233.162 5.27604 233.351 5.07504 233.555 4.91904C233.807 4.69704 234.101 4.52904 234.437 4.41504C234.773 4.29504 235.112 4.22604 235.454 4.20804C235.796 4.18404 236.108 4.20804 236.39 4.28004V5.52204C236.036 5.43204 235.649 5.41104 235.229 5.45904C234.809 5.50704 234.422 5.67504 234.068 5.96304C233.744 6.21504 233.501 6.51804 233.339 6.87204C233.177 7.22004 233.069 7.59204 233.015 7.98804C232.961 8.37804 232.934 8.76504 232.934 9.14904V14H231.611Z" fill="#DEE1E6"/>
<path d="M225.323 14.27C224.429 14.27 223.673 14.045 223.055 13.595C222.437 13.139 221.969 12.524 221.651 11.75C221.333 10.97 221.174 10.097 221.174 9.13101C221.174 8.14701 221.333 7.27101 221.651 6.50301C221.975 5.72901 222.449 5.12001 223.073 4.67601C223.697 4.23201 224.465 4.01001 225.377 4.01001C226.265 4.01001 227.027 4.23501 227.663 4.68501C228.299 5.13501 228.785 5.74701 229.121 6.52101C229.463 7.29501 229.634 8.16501 229.634 9.13101C229.634 10.103 229.463 10.976 229.121 11.75C228.779 12.524 228.287 13.139 227.645 13.595C227.003 14.045 226.229 14.27 225.323 14.27ZM220.949 18.32V4.28001H222.137V11.597H222.281V18.32H220.949ZM225.188 13.037C225.866 13.037 226.43 12.866 226.88 12.524C227.33 12.182 227.666 11.717 227.888 11.129C228.116 10.535 228.23 9.86901 228.23 9.13101C228.23 8.39901 228.119 7.73901 227.897 7.15101C227.675 6.56301 227.336 6.09801 226.88 5.75601C226.43 5.41401 225.857 5.24301 225.161 5.24301C224.483 5.24301 223.919 5.40801 223.469 5.73801C223.025 6.06801 222.692 6.52701 222.47 7.11501C222.248 7.69701 222.137 8.36901 222.137 9.13101C222.137 9.88101 222.248 10.553 222.47 11.147C222.692 11.735 223.028 12.197 223.478 12.533C223.928 12.869 224.498 13.037 225.188 13.037Z" fill="#DEE1E6"/>
<path d="M210.134 14.27C209.402 14.27 208.787 14.138 208.289 13.874C207.797 13.61 207.428 13.259 207.182 12.821C206.936 12.383 206.813 11.906 206.813 11.39C206.813 10.862 206.918 10.412 207.128 10.04C207.344 9.66201 207.635 9.35301 208.001 9.11301C208.373 8.87301 208.802 8.69001 209.288 8.56401C209.78 8.44401 210.323 8.33901 210.917 8.24901C211.517 8.15301 212.102 8.07201 212.672 8.00601C213.248 7.93401 213.752 7.86501 214.184 7.79901L213.716 8.08701C213.734 7.12701 213.548 6.41601 213.158 5.95401C212.768 5.49201 212.09 5.26101 211.124 5.26101C210.458 5.26101 209.894 5.41101 209.432 5.71101C208.976 6.01101 208.655 6.48501 208.469 7.13301L207.182 6.75501C207.404 5.88501 207.851 5.21001 208.523 4.73001C209.195 4.25001 210.068 4.01001 211.142 4.01001C212.03 4.01001 212.783 4.17801 213.401 4.51401C214.025 4.84401 214.466 5.32401 214.724 5.95401C214.844 6.23601 214.922 6.55101 214.958 6.89901C214.994 7.24701 215.012 7.60101 215.012 7.96101V14H213.833V11.561L214.175 11.705C213.845 12.539 213.332 13.175 212.636 13.613C211.94 14.051 211.106 14.27 210.134 14.27ZM210.287 13.127C210.905 13.127 211.445 13.016 211.907 12.794C212.369 12.572 212.741 12.269 213.023 11.885C213.305 11.495 213.488 11.057 213.572 10.571C213.644 10.259 213.683 9.91701 213.689 9.54501C213.695 9.16701 213.698 8.88501 213.698 8.69901L214.202 8.96001C213.752 9.02001 213.263 9.08001 212.735 9.14001C212.213 9.20001 211.697 9.26901 211.187 9.34701C210.683 9.42501 210.227 9.51801 209.819 9.62601C209.543 9.70401 209.276 9.81501 209.018 9.95901C208.76 10.097 208.547 10.283 208.379 10.517C208.217 10.751 208.136 11.042 208.136 11.39C208.136 11.672 208.205 11.945 208.343 12.209C208.487 12.473 208.715 12.692 209.027 12.866C209.345 13.04 209.765 13.127 210.287 13.127Z" fill="#DEE1E6"/>
<path d="M203.332 2.43501V0.950012L204.655 0.950012V2.43501H203.332ZM203.332 14V4.28001H204.655V14H203.332Z" fill="#DEE1E6"/>
<path d="M197.48 14.27C196.502 14.27 195.674 14.051 194.996 13.613C194.318 13.175 193.802 12.572 193.448 11.804C193.1 11.03 192.92 10.142 192.908 9.14001C192.92 8.12001 193.106 7.22601 193.466 6.45801C193.826 5.68401 194.345 5.08401 195.023 4.65801C195.701 4.22601 196.523 4.01001 197.489 4.01001C198.473 4.01001 199.328 4.25001 200.054 4.73001C200.786 5.21001 201.287 5.86701 201.557 6.70101L200.261 7.11501C200.033 6.53301 199.67 6.08301 199.172 5.76501C198.68 5.44101 198.116 5.27901 197.48 5.27901C196.766 5.27901 196.175 5.44401 195.707 5.77401C195.239 6.09801 194.891 6.55101 194.663 7.13301C194.435 7.71501 194.318 8.38401 194.312 9.14001C194.324 10.304 194.594 11.24 195.122 11.948C195.65 12.65 196.436 13.001 197.48 13.001C198.14 13.001 198.701 12.851 199.163 12.551C199.631 12.245 199.985 11.801 200.225 11.219L201.557 11.615C201.197 12.479 200.669 13.139 199.973 13.595C199.277 14.045 198.446 14.27 197.48 14.27Z" fill="#DEE1E6"/>
<path d="M189.427 2.43501V0.950012L190.75 0.950012V2.43501H189.427ZM189.427 14V4.28001H190.75V14H189.427Z" fill="#DEE1E6"/>
<path d="M178.029 14V3.56002C178.029 3.30802 178.041 3.05902 178.065 2.81302C178.095 2.56702 178.152 2.33302 178.236 2.11102C178.32 1.88302 178.452 1.67302 178.632 1.48102C178.83 1.26502 179.046 1.10902 179.28 1.01302C179.514 0.91102 179.757 0.84502 180.009 0.81502C180.267 0.78502 180.519 0.77002 180.765 0.77002L182.007 0.77002V1.88602L180.855 1.88602C180.351 1.88602 179.973 2.00902 179.721 2.25502C179.475 2.50102 179.352 2.88802 179.352 3.41602V14H178.029ZM176.346 5.41402V4.28002L182.007 4.28002V5.41402L176.346 5.41402ZM183.573 14V3.56002C183.573 3.30802 183.585 3.05902 183.609 2.81302C183.639 2.56702 183.696 2.33302 183.78 2.11102C183.864 1.88302 183.996 1.67302 184.176 1.48102C184.374 1.26502 184.59 1.10902 184.824 1.01302C185.058 0.91102 185.301 0.84502 185.553 0.81502C185.811 0.78502 186.063 0.77002 186.309 0.77002L187.551 0.77002V1.88602L186.399 1.88602C185.895 1.88602 185.517 2.00902 185.265 2.25502C185.019 2.50102 184.896 2.88802 184.896 3.41602V14H183.573ZM181.89 5.41402V4.28002L187.551 4.28002V5.41402L181.89 5.41402Z" fill="#DEE1E6"/>
<path d="M170.472 14.27C169.506 14.27 168.681 14.051 167.997 13.613C167.313 13.175 166.788 12.569 166.422 11.795C166.056 11.021 165.873 10.133 165.873 9.13101C165.873 8.11101 166.059 7.21701 166.431 6.44901C166.803 5.68101 167.331 5.08401 168.015 4.65801C168.705 4.22601 169.524 4.01001 170.472 4.01001C171.444 4.01001 172.272 4.22901 172.956 4.66701C173.646 5.09901 174.171 5.70201 174.531 6.47601C174.897 7.24401 175.08 8.12901 175.08 9.13101C175.08 10.151 174.897 11.048 174.531 11.822C174.165 12.59 173.637 13.19 172.947 13.622C172.257 14.054 171.432 14.27 170.472 14.27ZM170.472 13.001C171.552 13.001 172.356 12.644 172.884 11.93C173.412 11.21 173.676 10.277 173.676 9.13101C173.676 7.95501 173.409 7.01901 172.875 6.32301C172.347 5.62701 171.546 5.27901 170.472 5.27901C169.746 5.27901 169.146 5.44401 168.672 5.77401C168.204 6.09801 167.853 6.55101 167.619 7.13301C167.391 7.70901 167.277 8.37501 167.277 9.13101C167.277 10.301 167.547 11.24 168.087 11.948C168.627 12.65 169.422 13.001 170.472 13.001Z" fill="#DEE1E6"/>
<path d="M159.142 14V9.04102C159.142 8.50102 159.091 8.00602 158.989 7.55602C158.887 7.10002 158.722 6.70402 158.494 6.36802C158.272 6.02602 157.981 5.76202 157.621 5.57602C157.267 5.39002 156.835 5.29702 156.325 5.29702C155.857 5.29702 155.443 5.37802 155.083 5.54002C154.729 5.70202 154.429 5.93602 154.183 6.24202C153.943 6.54202 153.76 6.90802 153.634 7.34002C153.508 7.77202 153.445 8.26402 153.445 8.81602L152.509 8.60902C152.509 7.61302 152.683 6.77602 153.031 6.09802C153.379 5.42002 153.859 4.90702 154.471 4.55902C155.083 4.21102 155.785 4.03702 156.577 4.03702C157.159 4.03702 157.666 4.12702 158.098 4.30702C158.536 4.48702 158.905 4.73002 159.205 5.03602C159.511 5.34202 159.757 5.69302 159.943 6.08902C160.129 6.47902 160.264 6.89602 160.348 7.34002C160.432 7.77802 160.474 8.21602 160.474 8.65402V14H159.142ZM152.113 14V4.28002H153.31V6.67402H153.445V14H152.113Z" fill="#DEE1E6"/>
<path d="M145.529 14.27C144.563 14.27 143.738 14.051 143.054 13.613C142.37 13.175 141.845 12.569 141.479 11.795C141.113 11.021 140.93 10.133 140.93 9.13101C140.93 8.11101 141.116 7.21701 141.488 6.44901C141.86 5.68101 142.388 5.08401 143.072 4.65801C143.762 4.22601 144.581 4.01001 145.529 4.01001C146.501 4.01001 147.329 4.22901 148.013 4.66701C148.703 5.09901 149.228 5.70201 149.588 6.47601C149.954 7.24401 150.137 8.12901 150.137 9.13101C150.137 10.151 149.954 11.048 149.588 11.822C149.222 12.59 148.694 13.19 148.004 13.622C147.314 14.054 146.489 14.27 145.529 14.27ZM145.529 13.001C146.609 13.001 147.413 12.644 147.941 11.93C148.469 11.21 148.733 10.277 148.733 9.13101C148.733 7.95501 148.466 7.01901 147.932 6.32301C147.404 5.62701 146.603 5.27901 145.529 5.27901C144.803 5.27901 144.203 5.44401 143.729 5.77401C143.261 6.09801 142.91 6.55101 142.676 7.13301C142.448 7.70901 142.334 8.37501 142.334 9.13101C142.334 10.301 142.604 11.24 143.144 11.948C143.684 12.65 144.479 13.001 145.529 13.001Z" fill="#DEE1E6"/>
<path d="M137.449 2.43501V0.950012L138.772 0.950012V2.43501H137.449ZM137.449 14V4.28001H138.772V14H137.449Z" fill="#DEE1E6"/>
<path d="M135.354 14C134.808 14.114 134.268 14.159 133.734 14.135C133.206 14.111 132.732 13.997 132.312 13.793C131.898 13.589 131.583 13.271 131.367 12.839C131.193 12.479 131.097 12.116 131.079 11.75C131.067 11.378 131.061 10.955 131.061 10.481V1.58002L132.375 1.58002V10.427C132.375 10.835 132.378 11.177 132.384 11.453C132.396 11.723 132.459 11.963 132.573 12.173C132.789 12.575 133.131 12.815 133.599 12.893C134.073 12.971 134.658 12.953 135.354 12.839V14ZM128.982 5.41402V4.28002L135.354 4.28002V5.41402L128.982 5.41402Z" fill="#DEE1E6"/>
<path d="M122.841 14.27C122.109 14.27 121.494 14.138 120.996 13.874C120.504 13.61 120.135 13.259 119.889 12.821C119.643 12.383 119.52 11.906 119.52 11.39C119.52 10.862 119.625 10.412 119.835 10.04C120.051 9.66201 120.342 9.35301 120.708 9.11301C121.08 8.87301 121.509 8.69001 121.995 8.56401C122.487 8.44401 123.03 8.33901 123.624 8.24901C124.224 8.15301 124.809 8.07201 125.379 8.00601C125.955 7.93401 126.459 7.86501 126.891 7.79901L126.423 8.08701C126.441 7.12701 126.255 6.41601 125.865 5.95401C125.475 5.49201 124.797 5.26101 123.831 5.26101C123.165 5.26101 122.601 5.41101 122.139 5.71101C121.683 6.01101 121.362 6.48501 121.176 7.13301L119.889 6.75501C120.111 5.88501 120.558 5.21001 121.23 4.73001C121.902 4.25001 122.775 4.01001 123.849 4.01001C124.737 4.01001 125.49 4.17801 126.108 4.51401C126.732 4.84401 127.173 5.32401 127.431 5.95401C127.551 6.23601 127.629 6.55101 127.665 6.89901C127.701 7.24701 127.719 7.60101 127.719 7.96101V14H126.54V11.561L126.882 11.705C126.552 12.539 126.039 13.175 125.343 13.613C124.647 14.051 123.813 14.27 122.841 14.27ZM122.994 13.127C123.612 13.127 124.152 13.016 124.614 12.794C125.076 12.572 125.448 12.269 125.73 11.885C126.012 11.495 126.195 11.057 126.279 10.571C126.351 10.259 126.39 9.91701 126.396 9.54501C126.402 9.16701 126.405 8.88501 126.405 8.69901L126.909 8.96001C126.459 9.02001 125.97 9.08001 125.442 9.14001C124.92 9.20001 124.404 9.26901 123.894 9.34701C123.39 9.42501 122.934 9.51801 122.526 9.62601C122.25 9.70401 121.983 9.81501 121.725 9.95901C121.467 10.097 121.254 10.283 121.086 10.517C120.924 10.751 120.843 11.042 120.843 11.39C120.843 11.672 120.912 11.945 121.05 12.209C121.194 12.473 121.422 12.692 121.734 12.866C122.052 13.04 122.472 13.127 122.994 13.127Z" fill="#DEE1E6"/>
<path d="M118.145 14C117.599 14.114 117.059 14.159 116.525 14.135C115.997 14.111 115.523 13.997 115.103 13.793C114.689 13.589 114.374 13.271 114.158 12.839C113.984 12.479 113.888 12.116 113.87 11.75C113.858 11.378 113.852 10.955 113.852 10.481V1.58002L115.166 1.58002V10.427C115.166 10.835 115.169 11.177 115.175 11.453C115.187 11.723 115.25 11.963 115.364 12.173C115.58 12.575 115.922 12.815 116.39 12.893C116.864 12.971 117.449 12.953 118.145 12.839V14ZM111.773 5.41402V4.28002L118.145 4.28002V5.41402L111.773 5.41402Z" fill="#DEE1E6"/>
<path d="M108.832 2.43501V0.950012L110.155 0.950012V2.43501H108.832ZM108.832 14V4.28001H110.155V14H108.832Z" fill="#DEE1E6"/>
<path d="M102.98 14.27C102.002 14.27 101.174 14.051 100.496 13.613C99.8184 13.175 99.3024 12.572 98.9484 11.804C98.6004 11.03 98.4204 10.142 98.4084 9.14001C98.4204 8.12001 98.6064 7.22601 98.9664 6.45801C99.3264 5.68401 99.8454 5.08401 100.523 4.65801C101.201 4.22601 102.023 4.01001 102.989 4.01001C103.973 4.01001 104.828 4.25001 105.554 4.73001C106.286 5.21001 106.787 5.86701 107.057 6.70101L105.761 7.11501C105.533 6.53301 105.17 6.08301 104.672 5.76501C104.18 5.44101 103.616 5.27901 102.98 5.27901C102.266 5.27901 101.675 5.44401 101.207 5.77401C100.739 6.09801 100.391 6.55101 100.163 7.13301C99.9354 7.71501 99.8184 8.38401 99.8124 9.14001C99.8244 10.304 100.094 11.24 100.622 11.948C101.15 12.65 101.936 13.001 102.98 13.001C103.64 13.001 104.201 12.851 104.663 12.551C105.131 12.245 105.485 11.801 105.725 11.219L107.057 11.615C106.697 12.479 106.169 13.139 105.473 13.595C104.777 14.045 103.946 14.27 102.98 14.27Z" fill="#DEE1E6"/>
<path d="M92.6379 14V4.28004H93.8259V6.62004L93.5919 6.31404C93.6999 6.02604 93.8409 5.76204 94.0149 5.52204C94.1889 5.27604 94.3779 5.07504 94.5819 4.91904C94.8339 4.69704 95.1279 4.52904 95.4639 4.41504C95.7999 4.29504 96.1389 4.22604 96.4809 4.20804C96.8229 4.18404 97.1349 4.20804 97.4169 4.28004V5.52204C97.0629 5.43204 96.6759 5.41104 96.2559 5.45904C95.8359 5.50704 95.4489 5.67504 95.0949 5.96304C94.7709 6.21504 94.5279 6.51804 94.3659 6.87204C94.2039 7.22004 94.0959 7.59204 94.0419 7.98804C93.9879 8.37804 93.9609 8.76504 93.9609 9.14904V14H92.6379Z" fill="#DEE1E6"/>
<path d="M86.2216 14.27C85.2736 14.27 84.4516 14.06 83.7556 13.64C83.0656 13.22 82.5286 12.629 82.1446 11.867C81.7606 11.105 81.5686 10.211 81.5686 9.18501C81.5686 8.12301 81.7576 7.20501 82.1356 6.43101C82.5136 5.65701 83.0446 5.06001 83.7286 4.64001C84.4186 4.22001 85.2316 4.01001 86.1676 4.01001C87.1276 4.01001 87.9466 4.23201 88.6246 4.67601C89.3026 5.11401 89.8156 5.74401 90.1636 6.56601C90.5116 7.38801 90.6706 8.36901 90.6406 9.50901L89.2906 9.50901V9.04101C89.2666 7.78101 88.9936 6.83001 88.4716 6.18801C87.9556 5.54601 87.1996 5.22501 86.2036 5.22501C85.1596 5.22501 84.3586 5.56401 83.8006 6.24201C83.2486 6.92001 82.9726 7.88601 82.9726 9.14001C82.9726 10.364 83.2486 11.315 83.8006 11.993C84.3586 12.665 85.1476 13.001 86.1676 13.001C86.8636 13.001 87.4696 12.842 87.9856 12.524C88.5076 12.2 88.9186 11.735 89.2186 11.129L90.4516 11.606C90.0676 12.452 89.5006 13.109 88.7506 13.577C88.0066 14.039 87.1636 14.27 86.2216 14.27ZM82.5046 9.50901V8.40201L89.9296 8.40201V9.50901L82.5046 9.50901Z" fill="#DEE1E6"/>
<path d="M71.8879 14L75.6859 9.08603L71.9689 4.28003H73.5529L76.4599 8.06903L79.3399 4.28003H80.9239L77.2069 9.08603L81.0139 14H79.4209L76.4599 10.103L73.4809 14H71.8879Z" fill="#DEE1E6"/>
<path d="M66.9032 14.27C65.9552 14.27 65.1332 14.06 64.4372 13.64C63.7472 13.22 63.2102 12.629 62.8262 11.867C62.4422 11.105 62.2502 10.211 62.2502 9.18501C62.2502 8.12301 62.4392 7.20501 62.8172 6.43101C63.1952 5.65701 63.7262 5.06001 64.4102 4.64001C65.1002 4.22001 65.9132 4.01001 66.8492 4.01001C67.8092 4.01001 68.6282 4.23201 69.3062 4.67601C69.9842 5.11401 70.4972 5.74401 70.8452 6.56601C71.1932 7.38801 71.3522 8.36901 71.3222 9.50901L69.9722 9.50901V9.04101C69.9482 7.78101 69.6752 6.83001 69.1532 6.18801C68.6372 5.54601 67.8812 5.22501 66.8852 5.22501C65.8412 5.22501 65.0402 5.56401 64.4822 6.24201C63.9302 6.92001 63.6542 7.88601 63.6542 9.14001C63.6542 10.364 63.9302 11.315 64.4822 11.993C65.0402 12.665 65.8292 13.001 66.8492 13.001C67.5452 13.001 68.1512 12.842 68.6672 12.524C69.1892 12.2 69.6002 11.735 69.9002 11.129L71.1332 11.606C70.7492 12.452 70.1822 13.109 69.4322 13.577C68.6882 14.039 67.8452 14.27 66.9032 14.27ZM63.1862 9.50901V8.40201L70.6112 8.40201V9.50901L63.1862 9.50901Z" fill="#DEE1E6"/>
<path d="M57.2717 14C56.7257 14.114 56.1857 14.159 55.6517 14.135C55.1237 14.111 54.6497 13.997 54.2297 13.793C53.8157 13.589 53.5007 13.271 53.2847 12.839C53.1107 12.479 53.0147 12.116 52.9967 11.75C52.9847 11.378 52.9787 10.955 52.9787 10.481V1.58002L54.2927 1.58002V10.427C54.2927 10.835 54.2957 11.177 54.3017 11.453C54.3137 11.723 54.3767 11.963 54.4907 12.173C54.7067 12.575 55.0487 12.815 55.5167 12.893C55.9907 12.971 56.5757 12.953 57.2717 12.839V14ZM50.8997 5.41402V4.28002L57.2717 4.28002V5.41402L50.8997 5.41402Z" fill="#DEE1E6"/>
<path d="M45.0092 14.243C44.4272 14.243 43.9172 14.153 43.4792 13.973C43.0472 13.793 42.6782 13.55 42.3722 13.244C42.0722 12.938 41.8292 12.59 41.6432 12.2C41.4572 11.804 41.3222 11.387 41.2382 10.949C41.1542 10.505 41.1122 10.064 41.1122 9.62603V4.28003H42.4442V9.23903C42.4442 9.77303 42.4952 10.268 42.5972 10.724C42.6992 11.18 42.8612 11.579 43.0832 11.921C43.3112 12.257 43.6022 12.518 43.9562 12.704C44.3162 12.89 44.7512 12.983 45.2612 12.983C45.7292 12.983 46.1402 12.902 46.4942 12.74C46.8542 12.578 47.1542 12.347 47.3942 12.047C47.6402 11.741 47.8262 11.372 47.9522 10.94C48.0782 10.502 48.1412 10.01 48.1412 9.46403L49.0772 9.67103C49.0772 10.667 48.9032 11.504 48.5552 12.182C48.2072 12.86 47.7272 13.373 47.1152 13.721C46.5032 14.069 45.8012 14.243 45.0092 14.243ZM48.2762 14V11.606H48.1412V4.28003H49.4642V14H48.2762Z" fill="#DEE1E6"/>
<path d="M33.6675 2.43501V0.950012L34.9905 0.950012V2.43501H33.6675ZM33.6675 14V4.28001H34.9905V14H33.6675Z" fill="#DEE1E6"/>
<path d="M26.517 14.243C25.935 14.243 25.425 14.153 24.987 13.973C24.555 13.793 24.186 13.55 23.88 13.244C23.58 12.938 23.337 12.59 23.151 12.2C22.965 11.804 22.83 11.387 22.746 10.949C22.662 10.505 22.62 10.064 22.62 9.62603V4.28003H23.952V9.23903C23.952 9.77303 24.003 10.268 24.105 10.724C24.207 11.18 24.369 11.579 24.591 11.921C24.819 12.257 25.11 12.518 25.464 12.704C25.824 12.89 26.259 12.983 26.769 12.983C27.237 12.983 27.648 12.902 28.002 12.74C28.362 12.578 28.662 12.347 28.902 12.047C29.148 11.741 29.334 11.372 29.46 10.94C29.586 10.502 29.649 10.01 29.649 9.46403L30.585 9.67103C30.585 10.667 30.411 11.504 30.063 12.182C29.715 12.86 29.235 13.373 28.623 13.721C28.011 14.069 27.309 14.243 26.517 14.243ZM29.784 14L29.784 11.606H29.649V4.28003H30.972V14H29.784Z" fill="#DEE1E6"/>
<path d="M19.9536 14.261L16.4976 10.823L17.3976 9.92302L20.8356 13.361L19.9536 14.261ZM15.0216 14.27C13.7316 14.27 12.6426 13.985 11.7546 13.415C10.8666 12.839 10.1946 12.044 9.73857 11.03C9.28257 10.016 9.05457 8.84602 9.05457 7.52002C9.05457 6.19402 9.28257 5.02402 9.73857 4.01002C10.1946 2.99602 10.8666 2.20402 11.7546 1.63402C12.6426 1.05802 13.7316 0.77002 15.0216 0.77002C16.3176 0.77002 17.4066 1.05802 18.2886 1.63402C19.1766 2.20402 19.8486 2.99602 20.3046 4.01002C20.7666 5.02402 20.9976 6.19402 20.9976 7.52002C20.9976 8.84602 20.7666 10.016 20.3046 11.03C19.8486 12.044 19.1766 12.839 18.2886 13.415C17.4066 13.985 16.3176 14.27 15.0216 14.27ZM15.0216 13.001C16.0356 13.001 16.8816 12.77 17.5596 12.308C18.2376 11.846 18.7446 11.204 19.0806 10.382C19.4226 9.55402 19.5936 8.60002 19.5936 7.52002C19.5936 6.44002 19.4226 5.48902 19.0806 4.66702C18.7446 3.84502 18.2376 3.20302 17.5596 2.74102C16.8816 2.27902 16.0356 2.04502 15.0216 2.03902C14.0076 2.03902 13.1646 2.27002 12.4926 2.73202C11.8206 3.19402 11.3136 3.83902 10.9716 4.66702C10.6356 5.48902 10.4646 6.44002 10.4586 7.52002C10.4526 8.60002 10.6176 9.55102 10.9536 10.373C11.2956 11.189 11.8056 11.831 12.4836 12.299C13.1616 12.761 14.0076 12.995 15.0216 13.001Z" fill="#DEE1E6"/>
</svg>
