<svg width="115" height="94" viewBox="0 0 115 94" fill="none" xmlns="http://www.w3.org/2000/svg">
<path d="M93.5563 86.7696L93.2382 86.7395L93.2891 86.1504L93.8702 86.202L93.8405 86.5245L93.5775 86.503L93.5563 86.7696Z" fill="#DBDBDB"/>
<path d="M4.38457 93.8805H106.689L102.922 22.1953H0.617676L4.38457 93.8805Z" fill="#15ABFF"/>
<path d="M66.5857 15.0293H102.732L103.122 22.4511H64.8973L66.5857 15.0293Z" fill="#15ABFF"/>
<path opacity="0.1" d="M4.38457 93.8805H106.689L102.922 22.1953H0.617676L4.38457 93.8805Z" fill="black"/>
<path opacity="0.1" d="M66.5857 15.0293H102.732L103.122 22.4511H64.8973L66.5857 15.0293Z" fill="black"/>
<path d="M99.7984 52.0335L69.1075 39.985L84.366 0.0466003L107.154 8.99489L112.151 19.7062L99.7984 52.0335Z" fill="white"/>
<path d="M99.7363 52.1841L98.943 51.8702L99.0576 51.5692L99.8508 51.8831L99.7363 52.1841ZM100.088 51.7025L99.7914 51.5864L100.097 50.7866L100.394 50.9027L100.088 51.7025ZM98.154 51.5606L97.3608 51.251L97.4753 50.95L98.2686 51.2596L98.154 51.5606ZM96.5718 50.9629L95.7785 50.649L95.893 50.3523L96.6863 50.6619L96.5718 50.9629ZM94.9895 50.3394L94.1962 50.0298L94.3108 49.7288L95.104 50.0384L94.9895 50.3394ZM100.682 50.1029L100.39 49.9868L100.695 49.187L100.992 49.3031L100.682 50.1029ZM93.3902 49.703L92.597 49.3891L92.7115 49.0924L93.5048 49.402L93.3902 49.703ZM91.808 49.0795L91.0147 48.7699L91.1293 48.4689L91.9225 48.7785L91.808 49.0795ZM101.297 48.499L101 48.3829L101.306 47.5831L101.603 47.6992L101.297 48.499ZM90.2257 48.4603L89.4325 48.1507L89.547 47.8497L90.3403 48.1593L90.2257 48.4603ZM88.6435 47.8368L87.8502 47.5272L87.9647 47.2262L88.758 47.5358L88.6435 47.8368ZM87.0612 47.2176L86.2679 46.908L86.3825 46.607L87.1757 46.9166L87.0612 47.2176ZM101.908 46.8951L101.611 46.779L101.921 45.9792L102.218 46.0953L101.908 46.8951ZM85.4789 46.5941L84.6857 46.2845L84.8002 45.9835L85.5935 46.2931L85.4789 46.5941ZM83.8967 45.9749L83.1034 45.6653L83.2179 45.3643L84.0112 45.6739L83.8967 45.9749ZM82.3314 45.3729L81.5381 45.059L81.6526 44.758L82.4459 45.0719L82.3314 45.3729ZM102.54 45.3084L102.243 45.1923L102.549 44.3925L102.846 44.5086L102.54 45.3084ZM80.7448 44.7279L79.9516 44.4183L80.0661 44.1173L80.8594 44.4269L80.7448 44.7279ZM79.1626 44.1087L78.3693 43.7948L78.4839 43.4938L79.2771 43.8077L79.1626 44.1087ZM103.147 43.6787L102.85 43.5626L103.16 42.7628L103.457 42.8789L103.147 43.6787ZM77.5803 43.4809L76.7871 43.1713L76.9016 42.8703L77.6948 43.1799L77.5803 43.4809ZM75.9981 42.8617L75.2048 42.5478L75.3193 42.2511L76.1126 42.5607L75.9981 42.8617ZM74.4158 42.2382L73.6225 41.9286L73.7371 41.6276L74.5303 41.9372L74.4158 42.2382ZM103.762 42.0748L103.465 41.9587L103.77 41.1589L104.067 41.275L103.762 42.0748ZM72.8335 41.619L72.0403 41.3094L72.1548 41.0084L72.9481 41.318L72.8335 41.619ZM71.2513 40.9955L70.458 40.6859L70.5725 40.3849L71.3658 40.6945L71.2513 40.9955ZM104.373 40.4709L104.076 40.3548L104.386 39.555L104.678 39.6711L104.373 40.4709ZM69.669 40.3763L68.8927 40.071L69.0115 39.7528L69.3084 39.8732L69.7878 40.0624L69.669 40.3763ZM69.6138 39.0863L69.3211 38.9702L69.6266 38.1661L69.9235 38.2865L69.6138 39.0863ZM104.988 38.8842L104.691 38.7681L104.996 37.9683L105.293 38.0844L104.988 38.8842ZM70.2289 37.4824L69.932 37.3663L70.2374 36.5622L70.5344 36.6826L70.2289 37.4824ZM105.599 37.2803L105.302 37.1642L105.607 36.3644L105.904 36.4805L105.599 37.2803ZM70.8398 35.8785L70.5428 35.7624L70.8525 34.9583L71.1494 35.0787L70.8398 35.8785ZM106.214 35.6764L105.917 35.5603L106.222 34.7605L106.519 34.8766L106.214 35.6764ZM71.4549 34.2746L71.1579 34.1585L71.4634 33.3544L71.7603 33.4748L71.4549 34.2746ZM106.825 34.0725L106.528 33.9564L106.833 33.1566L107.13 33.2727L106.825 34.0725ZM72.0657 32.6707L71.7688 32.5546L72.0784 31.7505L72.3754 31.8709L72.0657 32.6707ZM107.44 32.4686L107.143 32.3525L107.448 31.5527L107.745 31.6688L107.44 32.4686ZM72.685 31.0539L72.3881 30.9378L72.6935 30.1337L72.9905 30.2541L72.685 31.0539ZM108.055 30.8518L107.758 30.7357L108.063 29.9359L108.36 30.052L108.055 30.8518ZM73.2959 29.4629L72.999 29.3468L73.3044 28.5427L73.6013 28.6631L73.2959 29.4629ZM108.67 29.2608L108.373 29.1447L108.678 28.3449L108.975 28.461L108.67 29.2608ZM73.911 27.859L73.614 27.7429L73.9195 26.9388L74.2164 27.0592L73.911 27.859ZM109.281 27.6569L108.984 27.5408L109.289 26.741L109.586 26.8571L109.281 27.6569ZM74.5218 26.2551L74.2249 26.139L74.5303 25.3349L74.8273 25.4553L74.5218 26.2551ZM109.892 26.053L109.595 25.9369L109.904 25.1371L110.201 25.2532L109.892 26.053ZM75.1369 24.6512L74.84 24.5351L75.1454 23.731L75.4423 23.8514L75.1369 24.6512ZM110.507 24.4491L110.21 24.333L110.515 23.5332L110.812 23.6493L110.507 24.4491ZM75.7478 23.0473L75.4508 22.9312L75.7563 22.1271L76.0532 22.2475L75.7478 23.0473ZM111.118 22.8452L110.821 22.7291L111.13 21.9293L111.427 22.0454L111.118 22.8452ZM76.3629 21.4434L76.0659 21.3273L76.3713 20.5232L76.6683 20.6436L76.3629 21.4434ZM111.733 21.2413L111.436 21.1252L111.741 20.3254L112.038 20.4415L111.733 21.2413ZM76.9737 19.8395L76.6768 19.7234L76.9822 18.9193L77.2791 19.0397L76.9737 19.8395ZM111.936 19.6546L111.576 18.8763L111.864 18.7387L112.225 19.517L111.936 19.6546ZM77.5761 18.2356L77.2834 18.1195L77.5888 17.3154L77.8857 17.4315L77.5761 18.2356ZM111.202 18.098L110.842 17.3197L111.13 17.1821L111.491 17.9604L111.202 18.098ZM78.1996 16.6188L77.9027 16.5027L78.1996 15.7029L78.4966 15.819L78.1996 16.6188ZM110.486 16.5285L110.125 15.7545L110.413 15.6169L110.774 16.3909L110.486 16.5285ZM78.8105 15.0149L78.5136 14.8988L78.8232 14.0947L79.1202 14.2108L78.8105 15.0149ZM109.777 14.9762L109.417 14.1979L109.705 14.0603L110.066 14.8386L109.777 14.9762ZM109.052 13.4196L108.691 12.6413L108.98 12.5037L109.34 13.282L109.052 13.4196ZM79.4426 13.4196L79.1456 13.3035L79.451 12.4994L79.748 12.6155L79.4426 13.4196ZM108.318 11.8673L107.957 11.089L108.246 10.9514L108.606 11.7297L108.318 11.8673ZM80.0449 11.8071L79.748 11.691L80.0576 10.8869L80.3503 11.003L80.0449 11.8071ZM107.592 10.3107L107.232 9.53241L107.52 9.39481L107.881 10.1731L107.592 10.3107ZM80.66 10.2032L80.3631 10.0871L80.6685 9.28301L80.9654 9.39911L80.66 10.2032ZM106.786 9.02071L105.993 8.71111L106.112 8.41011L106.901 8.71971L106.786 9.02071ZM81.2709 8.59071L80.9739 8.47461L81.2836 7.67051L81.5763 7.78661L81.2709 8.59071ZM105.204 8.39291L104.411 8.07901L104.53 7.78231L105.319 8.09191L105.204 8.39291ZM103.622 7.76941L102.829 7.45981L102.947 7.15881L103.736 7.46841L103.622 7.76941ZM102.04 7.15021L101.246 6.84061L101.365 6.53961L102.154 6.84921L102.04 7.15021ZM81.8859 6.98681L81.589 6.87071L81.8944 6.06661L82.1914 6.18271L81.8859 6.98681ZM100.457 6.52671L99.6642 6.21711L99.7829 5.91611L100.572 6.22571L100.457 6.52671ZM98.8752 5.90751L98.0819 5.59791L98.2007 5.29691L98.9897 5.60651L98.8752 5.90751ZM82.4883 5.38291L82.1914 5.26681L82.4968 4.46271L82.7937 4.57881L82.4883 5.38291ZM97.2844 5.28401L96.4912 4.97441L96.6099 4.67341L97.3989 4.98301L97.2844 5.28401ZM95.7021 4.66481L94.9089 4.35521L95.0277 4.05421L95.8167 4.36381L95.7021 4.66481ZM94.1199 4.04131L93.3266 3.73171L93.4454 3.43071L94.2344 3.74461L94.1199 4.04131ZM83.0907 3.77901L82.7937 3.6629L83.0992 2.85881L83.3961 2.97921L83.0907 3.77901ZM92.5249 3.42211L91.7316 3.11251L91.8504 2.81151L92.6394 3.12111L92.5249 3.42211ZM90.9553 2.8029L90.1621 2.48901L90.2809 2.18801L91.0699 2.50191L90.9553 2.8029ZM89.3731 2.17941L88.5798 1.86981L88.6986 1.56881L89.4876 1.87841L89.3731 2.17941ZM83.7142 2.17941L83.4173 2.0633L83.7227 1.25921L84.0197 1.37961L83.7142 2.17941ZM87.7908 1.5645L86.9976 1.2506L87.1163 0.949607L87.9053 1.2635L87.7908 1.5645ZM86.2085 0.941003L85.411 0.652903L85.5298 0.351907L86.3188 0.661507L86.2085 0.941003ZM84.3293 0.575507L84.0324 0.459407L84.2699 -0.164093L84.7408 0.020804L84.6263 0.321803L84.4524 0.253007L84.3293 0.575507Z" fill="#DBDBDB"/>
<path d="M107.269 9.06641L112.266 19.7777L104.363 16.6731L107.269 9.06641Z" fill="#DBDBDB"/>
<path d="M32.4471 40.5682L56.7034 14.8296L55.1971 13.3712L30.941 39.1098L32.4471 40.5682Z" fill="white"/>
<path d="M36.2787 44.2292L60.5348 18.4907L59.0289 17.0323L34.7726 42.7709L36.2787 44.2292Z" fill="white"/>
<path d="M40.1027 47.8879L64.3588 22.1492L62.8529 20.6908L38.5967 46.4293L40.1027 47.8879Z" fill="white"/>
<path d="M51.6236 58.8961L87.1635 21.1838L85.6576 19.7254L50.1173 57.438L51.6236 58.8961Z" fill="white"/>
<path d="M55.4419 62.5444L90.9822 24.8319L89.4759 23.3735L53.9355 61.0858L55.4419 62.5444Z" fill="white"/>
<path d="M59.2702 66.2069L94.8105 28.4943L93.3042 27.0359L57.7643 64.7484L59.2702 66.2069Z" fill="white"/>
<path d="M63.0871 69.8639L98.6274 32.1515L97.1215 30.6931L61.5812 68.4054L63.0871 69.8639Z" fill="white"/>
<path d="M66.9141 73.5135L102.454 35.801L100.949 34.3427L65.4082 72.0549L66.9141 73.5135Z" fill="white"/>
<path d="M70.7429 77.1661L106.283 39.4534L104.777 37.9951L69.2366 75.7075L70.7429 77.1661Z" fill="white"/>
<path d="M74.57 80.8269L110.11 43.1146L108.604 41.6562L73.0641 79.3688L74.57 80.8269Z" fill="white"/>
<path d="M6.47492 49.6556L68.9384 42.1865L63.9667 -0.151306L1.5033 7.31349L6.47492 49.6556Z" fill="#EBEBEB"/>
<path d="M8.76131 46.7101L66.0368 39.86L61.6803 2.79404L4.40051 9.63963L8.76131 46.7101Z" fill="white"/>
<path d="M10.8374 20.6036C10.9822 21.8522 11.4888 23.0292 12.2932 23.986C13.0976 24.9429 14.1636 25.6366 15.3568 25.9796C16.5499 26.3226 17.8166 26.2994 18.9967 25.913C20.1768 25.5266 21.2176 24.7944 21.9874 23.8088C22.7572 22.8231 23.2215 21.6284 23.3218 20.3754C23.4221 19.1223 23.1538 17.8673 22.5508 16.7688C21.9478 15.6703 21.0371 14.7776 19.9338 14.2034C18.8305 13.6293 17.5841 13.3995 16.352 13.543C15.5319 13.638 14.7384 13.8962 14.017 14.3028C13.2956 14.7094 12.6605 15.2564 12.1481 15.9124C11.6358 16.5684 11.2563 17.3205 11.0313 18.1255C10.8064 18.9306 10.7405 19.7727 10.8374 20.6036Z" fill="#DBDBDB"/>
<path d="M26.2499 55.5718L65.7047 50.8547L42.8234 26.1082L26.2499 55.5718Z" fill="#EBEBEB"/>
<path d="M10.6617 57.3901L43.2318 53.4943L24.8936 37.7906L10.6617 57.3901Z" fill="#DBDBDB"/>
<path d="M4.50073 93.8678H106.809L114.699 26.3923H12.3908L4.50073 93.8678Z" fill="#15ABFF"/>
<path d="M79.6041 19.6442H115.75L114.936 26.6317H76.7111L79.6041 19.6442Z" fill="#15ABFF"/>
</svg>
