<svg width="18" height="18" viewBox="0 0 18 18" fill="none" xmlns="http://www.w3.org/2000/svg">
<path d="M16.8 0L1.2 0C0.88174 0 0.576516 0.126428 0.351472 0.351472C0.126428 0.576516 0 0.88174 0 1.2L0 16.8C0 17.1183 0.126428 17.4235 0.351472 17.6485C0.576516 17.8736 0.88174 18 1.2 18L16.8 18C17.1183 18 17.4235 17.8736 17.6485 17.6485C17.8736 17.4235 18 17.1183 18 16.8L18 1.2C18 0.88174 17.8736 0.576516 17.6485 0.351472C17.4235 0.126428 17.1183 0 16.8 0ZM5.3322 15.3564L2.6244 15.3564L2.6244 6.75H5.3322L5.3322 15.3564ZM3.978 5.5686C3.6667 5.56765 3.36266 5.47447 3.10429 5.30083C2.84591 5.1272 2.64479 4.88088 2.52632 4.59301C2.40784 4.30513 2.37734 3.9886 2.43865 3.6834C2.49996 3.3782 2.65035 3.09801 2.8708 2.87822C3.09126 2.65843 3.37191 2.5089 3.67729 2.44852C3.98268 2.38814 4.29912 2.41961 4.58663 2.53895C4.87414 2.6583 5.11984 2.86018 5.29269 3.11908C5.46555 3.37798 5.5578 3.6823 5.5578 3.9936C5.55788 4.20086 5.51704 4.40609 5.43761 4.59753C5.35819 4.78897 5.24175 4.96284 5.09497 5.10917C4.9482 5.2555 4.77397 5.37141 4.58229 5.45025C4.39062 5.52909 4.18526 5.56931 3.978 5.5686ZM15.3726 15.3564H12.72V11.1936C12.72 10.1814 12.72 8.9436 11.31 8.9436C9.9 8.9436 9.7302 10.0128 9.7302 11.1372V15.4128H7.08L7.08 6.75L9.5616 6.75V7.9314H9.618C9.87394 7.4889 10.2453 7.12429 10.6925 6.87657C11.1396 6.62885 11.6457 6.50732 12.1566 6.525C14.8644 6.525 15.372 8.325 15.372 10.6314L15.3726 15.3564Z" fill="#255ABB"/>
</svg>
