<svg width="115" height="94" viewBox="0 0 115 94" fill="none" xmlns="http://www.w3.org/2000/svg">
<path d="M49.7305 22.3834H59.933V18.0332H49.7305V22.3834Z" fill="#EBEBEB"/>
<path d="M43.9749 27.8617L49.1164 27.7628L51.6539 27.724C52.4974 27.7063 53.3374 27.724 54.1774 27.7028L54.0234 27.8617L54.0024 23.5115L54.1774 23.688L49.0779 23.6668C47.3769 23.6668 45.6759 23.628 43.9749 23.6103L44.0729 23.5115C44.0729 24.2177 44.0414 24.9415 44.0274 25.6654L43.9749 27.8617ZM43.9749 27.8617L43.9259 25.7078C43.9259 25.0016 43.8874 24.2495 43.8804 23.5115V23.4161H43.9749C45.6759 23.4161 47.3769 23.3596 49.0779 23.3596L54.1774 23.3349H54.3559V23.5115L54.3384 27.8617V28.0206H54.1809C53.3234 28.0206 52.4624 28.0206 51.6049 27.9994L49.0394 27.9605L43.9749 27.8617Z" fill="#EBEBEB"/>
<path d="M77.5198 91.6068L77.2573 91.5821L77.2993 91.0984L77.7788 91.1408L77.7543 91.4056L77.5373 91.3879L77.5198 91.6068Z" fill="#DBDBDB"/>
<path d="M13.2288 38.7393L55.2953 29.3185L47.2908 0.33252L5.22778 9.74969L13.2288 38.7393Z" fill="#DBDBDB"/>
<path d="M31.6969 0.662191L46.5614 -2.664L47.3874 0.33735L31.6724 3.85422L31.6969 0.662191Z" fill="#DBDBDB"/>
<path d="M13.2959 38.7355L55.3589 29.3148L52.5274 0.978485L10.4644 10.3957L13.2959 38.7355Z" fill="#EBEBEB"/>
<path d="M37.4924 1.37907L52.3569 -1.94714L52.6474 0.987128L36.9324 4.504L37.4924 1.37907Z" fill="#EBEBEB"/>
<path d="M104.267 91.7683L78.9443 81.8745L91.5338 49.0785L110.336 56.4265L114.459 65.2223L104.267 91.7683Z" fill="white"/>
<path d="M104.224 91.8845L103.569 91.6267L103.664 91.3796L104.318 91.6373L104.224 91.8845ZM104.514 91.489L104.269 91.3937L104.521 90.7369L104.766 90.8323L104.514 91.489ZM102.918 91.3725L102.264 91.1183L102.358 90.8711L103.013 91.1253L102.918 91.3725ZM101.613 90.8817L100.958 90.6239L101.053 90.3803L101.707 90.6345L101.613 90.8817ZM100.307 90.3697L99.6529 90.1155L99.7474 89.8683L100.402 90.1225L100.307 90.3697ZM105.004 90.1755L104.763 90.0802L105.015 89.4234L105.26 89.5187L105.004 90.1755ZM98.9879 89.8471L98.3334 89.5893L98.4279 89.3457L99.0824 89.5999L98.9879 89.8471ZM97.6824 89.3351L97.0279 89.0809L97.1224 88.8337L97.7769 89.088L97.6824 89.3351ZM105.512 88.8584L105.267 88.7631L105.519 88.1063L105.764 88.2017L105.512 88.8584ZM96.3769 88.8266L95.7224 88.5724L95.8169 88.3253L96.4714 88.5795L96.3769 88.8266ZM95.0714 88.3147L94.4169 88.0604L94.5114 87.8133L95.1659 88.0675L95.0714 88.3147ZM93.7659 87.8062L93.1114 87.552L93.2059 87.3048L93.8604 87.559L93.7659 87.8062ZM106.016 87.5414L105.771 87.446L106.026 86.7893L106.271 86.8846L106.016 87.5414ZM92.4604 87.2942L91.8059 87.04L91.9004 86.7928L92.5549 87.047L92.4604 87.2942ZM91.1549 86.7857L90.5004 86.5315L90.5949 86.2843L91.2494 86.5386L91.1549 86.7857ZM89.8634 86.2914L89.2089 86.0336L89.3034 85.7865L89.9579 86.0442L89.8634 86.2914ZM106.537 86.2384L106.292 86.1431L106.544 85.4863L106.789 85.5817L106.537 86.2384ZM88.5544 85.7617L87.8999 85.5075L87.9944 85.2603L88.6489 85.5146L88.5544 85.7617ZM87.2489 85.2533L86.5944 84.9955L86.6889 84.7483L87.3434 85.0061L87.2489 85.2533ZM107.038 84.9002L106.793 84.8048L107.048 84.1481L107.293 84.2434L107.038 84.9002ZM85.9434 84.7378L85.2889 84.4835L85.3834 84.2363L86.0379 84.4906L85.9434 84.7378ZM84.6379 84.2293L83.9834 83.9715L84.0779 83.7279L84.7324 83.9821L84.6379 84.2293ZM83.3324 83.7173L82.6779 83.4631L82.7724 83.2159L83.4269 83.4701L83.3324 83.7173ZM107.545 83.5831L107.3 83.4878L107.552 82.831L107.797 82.9263L107.545 83.5831ZM82.0269 83.2088L81.3724 82.9546L81.4669 82.7074L82.1214 82.9617L82.0269 83.2088ZM80.7214 82.6968L80.0669 82.4426L80.1614 82.1954L80.8159 82.4497L80.7214 82.6968ZM108.049 82.2661L107.804 82.1707L108.06 81.514L108.301 81.6093L108.049 82.2661ZM79.4159 82.1884L78.7754 81.9377L78.8734 81.6764L79.1184 81.7752L79.5139 81.9306L79.4159 82.1884ZM79.3704 81.1291L79.1289 81.0337L79.3809 80.3734L79.6259 80.4723L79.3704 81.1291ZM108.557 80.9631L108.312 80.8678L108.564 80.211L108.809 80.3063L108.557 80.9631ZM79.8779 79.812L79.6329 79.7167L79.8849 79.0564L80.1299 79.1552L79.8779 79.812ZM109.061 79.646L108.816 79.5507L109.068 78.8939L109.313 78.9893L109.061 79.646ZM80.3819 78.4949L80.1369 78.3996L80.3924 77.7393L80.6374 77.8382L80.3819 78.4949ZM109.568 78.329L109.323 78.2336L109.575 77.5769L109.82 77.6722L109.568 78.329ZM80.8894 77.1779L80.6444 77.0825L80.8964 76.4222L81.1414 76.5211L80.8894 77.1779ZM110.072 77.0119L109.827 76.9166L110.079 76.2598L110.324 76.3552L110.072 77.0119ZM81.3934 75.8608L81.1484 75.7655L81.4039 75.1052L81.6489 75.2041L81.3934 75.8608ZM110.58 75.6949L110.335 75.5995L110.587 74.9428L110.832 75.0381L110.58 75.6949ZM81.9044 74.5332L81.6594 74.4378L81.9114 73.7775L82.1564 73.8764L81.9044 74.5332ZM111.087 74.3672L110.842 74.2719L111.094 73.6151L111.339 73.7104L111.087 74.3672ZM82.4084 73.2267L82.1634 73.1314L82.4154 72.4711L82.6604 72.5699L82.4084 73.2267ZM111.595 73.0607L111.35 72.9654L111.602 72.3086L111.847 72.404L111.595 73.0607ZM82.9159 71.9096L82.6709 71.8143L82.9229 71.154L83.1679 71.2529L82.9159 71.9096ZM112.099 71.7437L111.854 71.6483L112.106 70.9916L112.351 71.0869L112.099 71.7437ZM83.4199 70.5926L83.1749 70.4972L83.4269 69.8369L83.6719 69.9358L83.4199 70.5926ZM112.603 70.4266L112.358 70.3313L112.613 69.6745L112.858 69.7698L112.603 70.4266ZM83.9274 69.2755L83.6824 69.1802L83.9344 68.5199L84.1794 68.6187L83.9274 69.2755ZM113.11 69.1095L112.865 69.0142L113.117 68.3574L113.362 68.4528L113.11 69.1095ZM84.4314 67.9584L84.1864 67.8631L84.4384 67.2028L84.6834 67.3017L84.4314 67.9584ZM113.614 67.7925L113.369 67.6971L113.625 67.0404L113.87 67.1357L113.614 67.7925ZM84.9389 66.6414L84.6939 66.546L84.9459 65.8857L85.1909 65.9846L84.9389 66.6414ZM114.122 66.4754L113.877 66.3801L114.129 65.7233L114.374 65.8187L114.122 66.4754ZM85.4429 65.3243L85.1979 65.229L85.4499 64.5687L85.6949 64.6675L85.4429 65.3243ZM114.29 65.1725L113.992 64.5334L114.23 64.4204L114.528 65.0595L114.29 65.1725ZM85.9399 64.0072L85.6984 63.9119L85.9504 63.2516L86.1954 63.347L85.9399 64.0072ZM113.684 63.8943L113.387 63.2551L113.625 63.1422L113.922 63.7813L113.684 63.8943ZM86.4544 62.6796L86.2094 62.5843L86.4544 61.9275L86.6994 62.0228L86.4544 62.6796ZM113.093 62.6054L112.795 61.9699L113.033 61.8569L113.331 62.4925L113.093 62.6054ZM86.9584 61.3625L86.7134 61.2672L86.9689 60.6069L87.2139 60.7022L86.9584 61.3625ZM112.508 61.3308L112.211 60.6916L112.449 60.5786L112.746 61.2178L112.508 61.3308ZM111.91 60.0525L111.612 59.4134L111.85 59.3004L112.148 59.9395L111.91 60.0525ZM87.4799 60.0525L87.2349 59.9572L87.4869 59.2969L87.7319 59.3922L87.4799 60.0525ZM111.304 58.7778L111.007 58.1387L111.245 58.0257L111.542 58.6648L111.304 58.7778ZM87.9769 58.7284L87.7319 58.6331L87.9874 57.9728L88.2289 58.0681L87.9769 58.7284ZM110.706 57.4996L110.408 56.8605L110.646 56.7475L110.944 57.3866L110.706 57.4996ZM88.4844 57.4113L88.2394 57.316L88.4914 56.6557L88.7364 56.751L88.4844 57.4113ZM110.041 56.4403L109.386 56.1861L109.484 55.9389L110.135 56.1931L110.041 56.4403ZM88.9884 56.0872L88.7434 55.9919L88.9989 55.3316L89.2404 55.4269L88.9884 56.0872ZM108.735 55.9248L108.081 55.667L108.179 55.4234L108.83 55.6776L108.735 55.9248ZM107.43 55.4128L106.775 55.1586L106.873 54.9114L107.524 55.1656L107.43 55.4128ZM106.124 54.9043L105.47 54.6501L105.568 54.4029L106.219 54.6572L106.124 54.9043ZM89.4959 54.7702L89.2509 54.6748L89.5029 54.0145L89.7479 54.1099L89.4959 54.7702ZM104.819 54.3923L104.164 54.1381L104.262 53.8909L104.913 54.1452L104.819 54.3923ZM103.513 53.8839L102.859 53.6296L102.957 53.3825L103.608 53.6367L103.513 53.8839ZM89.9929 53.4531L89.7479 53.3578L89.9999 52.6975L90.2449 52.7928L89.9929 53.4531ZM102.201 53.3719L101.546 53.1176L101.644 52.8705L102.295 53.1247L102.201 53.3719ZM100.895 52.8634L100.241 52.6092L100.339 52.362L100.99 52.6162L100.895 52.8634ZM99.5899 52.3514L98.9354 52.0972L99.0334 51.85L99.6844 52.1078L99.5899 52.3514ZM90.4899 52.136L90.2449 52.0407L90.4969 51.3804L90.7419 51.4793L90.4899 52.136ZM98.2739 51.843L97.6194 51.5887L97.7174 51.3416L98.3684 51.5958L98.2739 51.843ZM96.9789 51.3345L96.3244 51.0767L96.4224 50.8296L97.0734 51.0873L96.9789 51.3345ZM95.6734 50.8225L95.0189 50.5683L95.1169 50.3211L95.7679 50.5753L95.6734 50.8225ZM91.0044 50.8225L90.7594 50.7272L91.0114 50.0669L91.2564 50.1657L91.0044 50.8225ZM94.3679 50.3176L93.7134 50.0598L93.8114 49.8126L94.4624 50.0704L94.3679 50.3176ZM93.0624 49.8056L92.4044 49.569L92.5024 49.3218L93.1534 49.5761L93.0624 49.8056ZM91.5119 49.5054L91.2669 49.4101L91.4629 48.8981L91.8514 49.0499L91.7569 49.2971L91.6134 49.2406L91.5119 49.5054Z" fill="#DBDBDB"/>
<path d="M110.499 56.4259L114.622 65.2216L108.101 62.6722L110.499 56.4259Z" fill="#DBDBDB"/>
<path d="M3.81088 97.3112H88.2204L85.1124 38.4459H0.702881L3.81088 97.3112Z" fill="#6D31ED"/>
<path d="M55.2319 32.3658H85.0554L85.3774 38.4603H53.8389L55.2319 32.3658Z" fill="#6D31ED"/>
<path opacity="0.1" d="M3.81088 97.3112H88.2204L85.1124 38.4459H0.702881L3.81088 97.3112Z" fill="black"/>
<path opacity="0.1" d="M55.2319 32.3658H85.0554L85.3774 38.4603H53.8389L55.2319 32.3658Z" fill="black"/>
<path d="M98.6453 56.6718L62.6513 94.6865L14.2778 48.0738L41.0038 19.8471L59.4908 18.9397L98.6453 56.6718Z" fill="#6D31ED"/>
<path opacity="0.6" d="M98.6453 56.6718L62.6513 94.6865L14.2778 48.0738L41.0038 19.8471L59.4908 18.9397L98.6453 56.6718Z" fill="white"/>
<path d="M40.9363 19.8707L59.4233 18.9632L50.1553 28.7512L40.9363 19.8707Z" fill="#6D31ED"/>
<path opacity="0.4" d="M40.9363 19.8707L59.4233 18.9632L50.1553 28.7512L40.9363 19.8707Z" fill="white"/>
<path d="M26.9331 53.3846L46.9462 32.249L45.7037 31.0514L25.6904 52.1869L26.9331 53.3846Z" fill="white"/>
<path d="M30.1062 56.4027L50.1194 35.2672L48.8769 34.0695L28.8635 55.2054L30.1062 56.4027Z" fill="white"/>
<path d="M33.2629 59.4298L53.2761 38.2943L52.0336 37.0966L32.0203 58.2321L33.2629 59.4298Z" fill="white"/>
<path d="M36.488 62.4524L65.8117 31.4844L64.5692 30.2868L35.2454 61.2547L36.488 62.4524Z" fill="white"/>
<path d="M39.6583 65.4688L68.982 34.5005L67.7395 33.3032L38.4158 64.2711L39.6583 65.4688Z" fill="white"/>
<path d="M42.8303 68.488L72.1536 37.52L70.9111 36.3223L41.5874 67.2906L42.8303 68.488Z" fill="white"/>
<path d="M46.0007 71.5039L75.3244 40.536L74.0815 39.3383L44.7578 70.3062L46.0007 71.5039Z" fill="white"/>
<path d="M49.171 74.5235L78.4947 43.5552L77.2518 42.3578L47.9285 73.3257L49.171 74.5235Z" fill="white"/>
<path d="M52.3404 77.5491L81.6641 46.5812L80.4216 45.3835L51.0979 76.3514L52.3404 77.5491Z" fill="white"/>
<path d="M55.5096 80.5661L84.8333 49.5982L83.5908 48.4005L54.2671 79.3684L55.5096 80.5661Z" fill="white"/>
<path d="M58.6804 83.5857L88.0037 52.6174L86.7612 51.42L57.4375 82.3879L58.6804 83.5857Z" fill="white"/>
<path d="M61.8497 86.6038L91.1734 55.6358L89.9309 54.4381L60.6072 85.4064L61.8497 86.6038Z" fill="white"/>
<path d="M5.15376 69.8891L56.6913 63.7557L52.5893 28.9894L1.05176 35.1193L5.15376 69.8891Z" fill="#EBEBEB"/>
<path d="M7.04037 67.47L54.2974 61.8451L50.7029 31.408L3.44238 37.0292L7.04037 67.47Z" fill="white"/>
<path d="M8.68838 46.0177C8.80784 47.0431 9.22581 48.0095 9.88948 48.7952C10.5531 49.5808 11.4328 50.1507 12.4172 50.4321C13.4016 50.7139 14.4467 50.6948 15.4204 50.3774C16.3942 50.0603 17.2528 49.459 17.888 48.6497C18.5231 47.8404 18.9063 46.8591 18.989 45.8302C19.0718 44.8013 18.8504 43.7706 18.3528 42.8687C17.8553 41.9666 17.1039 41.2335 16.1936 40.7621C15.2833 40.2908 14.2549 40.1018 13.2384 40.2198C12.5617 40.2978 11.907 40.5097 11.3118 40.8437C10.7166 41.1774 10.1925 41.6269 9.76981 42.1654C9.34708 42.7042 9.03394 43.3218 8.84833 43.9828C8.66276 44.6438 8.60841 45.3355 8.68838 46.0177Z" fill="#DBDBDB"/>
<path d="M21.825 65.7751L54.3785 61.9016L35.4995 41.5807L21.825 65.7751Z" fill="#EBEBEB"/>
<path d="M8.89331 67.3001L35.7663 64.101L20.6358 51.2058L8.89331 67.3001Z" fill="#DBDBDB"/>
<path d="M3.92847 97.3144H88.3415L94.8515 41.906H10.4385L3.92847 97.3144Z" fill="#6D31ED"/>
<path d="M66.0198 36.1803H95.8433L95.1713 41.9182H63.6328L66.0198 36.1803Z" fill="#6D31ED"/>
</svg>
