<svg width="180" height="36" viewBox="0 0 180 36" fill="none" xmlns="http://www.w3.org/2000/svg">
<path d="M16.8551 3.30048C17.2788 2.28167 18.7221 2.28168 19.1459 3.3005L22.6313 11.6804C22.8099 12.1099 23.2139 12.4033 23.6775 12.4405L32.7243 13.1658C33.8243 13.254 34.2702 14.6266 33.4322 15.3444L26.5395 21.2488C26.1863 21.5514 26.0319 22.0263 26.1399 22.4787L28.2458 31.3068C28.5018 32.3802 27.3341 33.2285 26.3925 32.6534L18.6471 27.9225C18.2502 27.6801 17.7509 27.6801 17.354 27.9225L9.60856 32.6534C8.6669 33.2285 7.49927 32.3802 7.75529 31.3068L9.86112 22.4787C9.96907 22.0263 9.81477 21.5514 9.4615 21.2488L2.56879 15.3444C1.73078 14.6266 2.17677 13.254 3.27668 13.1658L12.3235 12.4405C12.7872 12.4033 13.1911 12.1099 13.3697 11.6804L16.8551 3.30048Z" fill="url(#paint0_linear_14_244)"/>
<path d="M52.8551 3.30048C53.2788 2.28167 54.7221 2.28168 55.1459 3.3005L58.6313 11.6804C58.8099 12.1099 59.2139 12.4033 59.6775 12.4405L68.7243 13.1658C69.8243 13.254 70.2702 14.6266 69.4322 15.3444L62.5395 21.2488C62.1863 21.5514 62.0319 22.0263 62.1399 22.4787L64.2458 31.3068C64.5018 32.3802 63.3341 33.2285 62.3925 32.6534L54.6471 27.9225C54.2502 27.6801 53.7509 27.6801 53.354 27.9225L45.6086 32.6534C44.6669 33.2285 43.4993 32.3802 43.7553 31.3068L45.8611 22.4787C45.9691 22.0263 45.8148 21.5514 45.4615 21.2488L38.5688 15.3444C37.7308 14.6266 38.1768 13.254 39.2767 13.1658L48.3235 12.4405C48.7872 12.4033 49.1911 12.1099 49.3697 11.6804L52.8551 3.30048Z" fill="url(#paint1_linear_14_244)"/>
<path d="M88.8551 3.30048C89.2788 2.28167 90.7221 2.28168 91.1459 3.3005L94.6313 11.6804C94.8099 12.1099 95.2139 12.4033 95.6775 12.4405L104.724 13.1658C105.824 13.254 106.27 14.6266 105.432 15.3444L98.5395 21.2488C98.1863 21.5514 98.0319 22.0263 98.1399 22.4787L100.246 31.3068C100.502 32.3802 99.3341 33.2285 98.3925 32.6534L90.6471 27.9225C90.2502 27.6801 89.7509 27.6801 89.354 27.9225L81.6086 32.6534C80.6669 33.2285 79.4993 32.3802 79.7553 31.3068L81.8611 22.4787C81.9691 22.0263 81.8148 21.5514 81.4615 21.2488L74.5688 15.3444C73.7308 14.6266 74.1768 13.254 75.2767 13.1658L84.3235 12.4405C84.7872 12.4033 85.1911 12.1099 85.3697 11.6804L88.8551 3.30048Z" fill="url(#paint2_linear_14_244)"/>
<path d="M124.855 3.30048C125.279 2.28167 126.722 2.28168 127.146 3.3005L130.631 11.6804C130.81 12.1099 131.214 12.4033 131.678 12.4405L140.724 13.1658C141.824 13.254 142.27 14.6266 141.432 15.3444L134.54 21.2488C134.186 21.5514 134.032 22.0263 134.14 22.4787L136.246 31.3068C136.502 32.3802 135.334 33.2285 134.393 32.6534L126.647 27.9225C126.25 27.6801 125.751 27.6801 125.354 27.9225L117.609 32.6534C116.667 33.2285 115.499 32.3802 115.755 31.3068L117.861 22.4787C117.969 22.0263 117.815 21.5514 117.461 21.2488L110.569 15.3444C109.731 14.6266 110.177 13.254 111.277 13.1658L120.323 12.4405C120.787 12.4033 121.191 12.1099 121.37 11.6804L124.855 3.30048Z" fill="url(#paint3_linear_14_244)"/>
<path d="M160.855 3.30048C161.279 2.28167 162.722 2.28168 163.146 3.3005L166.631 11.6804C166.81 12.1099 167.214 12.4033 167.678 12.4405L176.724 13.1658C177.824 13.254 178.27 14.6266 177.432 15.3444L170.54 21.2488C170.186 21.5514 170.032 22.0263 170.14 22.4787L172.246 31.3068C172.502 32.3802 171.334 33.2285 170.393 32.6534L162.647 27.9225C162.25 27.6801 161.751 27.6801 161.354 27.9225L153.609 32.6534C152.667 33.2285 151.499 32.3802 151.755 31.3068L153.861 22.4787C153.969 22.0263 153.815 21.5514 153.461 21.2488L146.569 15.3444C145.731 14.6266 146.177 13.254 147.277 13.1658L156.323 12.4405C156.787 12.4033 157.191 12.1099 157.37 11.6804L160.855 3.30048Z" fill="url(#paint4_linear_14_244)"/>
<defs>
<linearGradient id="paint0_linear_14_244" x1="2.13354" y1="2.53638" x2="33.8674" y2="2.53638" gradientUnits="userSpaceOnUse">
<stop offset="0.4999" stop-color="#F3C63F"/>
<stop offset="0.5" stop-color="#F3C63F"/>
</linearGradient>
<linearGradient id="paint1_linear_14_244" x1="38.1335" y1="2.53638" x2="69.8674" y2="2.53638" gradientUnits="userSpaceOnUse">
<stop offset="0.4999" stop-color="#F3C63F"/>
<stop offset="0.5" stop-color="#F3C63F"/>
</linearGradient>
<linearGradient id="paint2_linear_14_244" x1="74.1335" y1="2.53638" x2="105.867" y2="2.53638" gradientUnits="userSpaceOnUse">
<stop offset="0.4999" stop-color="#F3C63F"/>
<stop offset="0.5" stop-color="#F3C63F"/>
</linearGradient>
<linearGradient id="paint3_linear_14_244" x1="110.134" y1="2.53638" x2="141.867" y2="2.53638" gradientUnits="userSpaceOnUse">
<stop offset="0.4999" stop-color="#F3C63F"/>
<stop offset="0.5" stop-color="#F3C63F"/>
</linearGradient>
<linearGradient id="paint4_linear_14_244" x1="146.134" y1="2.53638" x2="177.867" y2="2.53638" gradientUnits="userSpaceOnUse">
<stop offset="0.4999" stop-color="#F3C63F"/>
<stop offset="0.5" stop-color="#F3C63F"/>
</linearGradient>
</defs>
</svg>
